<svg id="visual" viewBox="0 0 1920 1080" width="1920" height="1080" xmlns="http://www.w3.org/2000/svg" xmlns:xlink="http://www.w3.org/1999/xlink" version="1.1"><rect x="0" y="0" width="1920" height="1080" fill="#ffffff"></rect><defs><linearGradient id="grad1_0" x1="43.8%" y1="0%" x2="100%" y2="100%"><stop offset="14.444444444444446%" stop-color="#ffffff" stop-opacity="1"></stop><stop offset="85.55555555555554%" stop-color="#ffffff" stop-opacity="1"></stop></linearGradient></defs><defs><linearGradient id="grad2_0" x1="0%" y1="0%" x2="56.3%" y2="100%"><stop offset="14.444444444444446%" stop-color="#ffffff" stop-opacity="1"></stop><stop offset="85.55555555555554%" stop-color="#ffffff" stop-opacity="1"></stop></linearGradient></defs><g transform="translate(1920, 0)"><path d="M0 594C-60.2 584 -120.4 574 -181.7 559.2C-243 544.5 -305.5 525 -349.1 480.6C-392.8 436.1 -417.8 366.7 -419.1 304.5C-420.4 242.2 -398 187.1 -423.2 137.5C-448.4 88 -521.2 44 -594 0L0 0Z" fill="#FBAE3C"></path></g><g transform="translate(0, 1080)"><path d="M0 -594C68.5 -599.6 137.1 -605.1 183.6 -564.9C230 -524.7 254.5 -438.8 277.4 -381.9C300.4 -324.9 321.9 -296.9 373.8 -271.6C425.7 -246.2 507.9 -223.4 549.7 -178.6C591.5 -133.8 592.7 -66.9 594 0L0 0Z" fill="#FBAE3C"></path></g></svg>