<svg width="470" height="340" viewBox="0 0 470 340" fill="none" xmlns="http://www.w3.org/2000/svg">
<g clip-path="url(#clip0_371_12)">
<path d="M318.945 131.627H280.497V156.168H318.945V131.627Z" fill="#6C63FF"/>
<path d="M259.037 170H220.589V194.541H259.037V170Z" fill="#6C63FF"/>
<path d="M431.342 139.659V87.4541H402.282V53.5433H382.611V87.4541H353.551V139.659H337.456V22.3097H304.82V11.1549H261.454V0H218.535V11.1549H177.851V22.3097H142.532V139.213H123.755V87.0079H94.6954V53.0971H75.0241V87.0079H45.9643V139.213H27.1872V324.383H70.1063V258.793H99.6132V324.383H214.958V248.084H265.031V324.383H334.774V324.829H377.693V259.239H407.2V324.829H450.119V139.659H431.342ZM42.6113 161.969H59.6001V175.354H42.6113V161.969ZM42.8348 199.449H59.8236V212.835H42.8348V199.449ZM60.0472 250.315H43.0583V236.929H60.0472V250.315ZM104.531 129.396H65.1885V121.365H104.531V129.396ZM104.531 117.795H65.1885V109.764H104.531V117.795ZM104.531 106.194H65.1885V98.1627H104.531V106.194ZM110.119 161.969H127.108V175.354H110.119V161.969ZM110.343 199.449H127.332V212.835H110.343V199.449ZM127.555 250.315H110.567V236.929H127.555V250.315ZM197.075 228.005H165.78V214.173H197.075V228.005ZM197.075 188.294H165.78V174.462H197.075V188.294ZM197.075 148.583H165.78V134.751H197.075V148.583ZM197.075 108.871H165.78V95.0394H197.075V108.871ZM197.075 69.1601H165.78V55.3281H197.075V69.1601ZM255.642 228.005H224.347V214.173H255.642V228.005ZM255.642 188.294H224.347V174.462H255.642V188.294ZM255.642 148.583H224.347V134.751H255.642V148.583ZM255.642 108.871H224.347V95.0394H255.642V108.871ZM255.642 69.1601H224.347V55.3281H255.642V69.1601ZM314.209 228.005H282.913V214.173H314.209V228.005ZM314.209 188.294H282.913V174.462H314.209V188.294ZM314.209 148.583H282.913V134.751H314.209V148.583ZM314.209 108.871H282.913V95.0394H314.209V108.871ZM314.209 69.1601H282.913V55.3281H314.209V69.1601ZM350.198 162.415H367.187V175.801H350.198V162.415ZM350.422 199.895H367.41V213.281H350.422V199.895ZM367.634 250.761H350.645V237.375H367.634V250.761ZM412.118 129.843H372.775V121.811H412.118V129.843ZM412.118 118.241H372.775V110.21H412.118V118.241ZM412.118 106.64H372.775V98.6089H412.118V106.64ZM417.706 162.415H434.695V175.801H417.706V162.415ZM417.93 199.895H434.919V213.281H417.93V199.895ZM435.142 250.761H418.153V237.375H435.142V250.761Z" fill="#565555"/>
<path d="M53.6489 279.188C53.5238 280.953 53.3281 282.927 53.0255 285.002L58.4913 278.952L58.5214 279.053C58.1871 277.597 57.6489 276.196 56.9226 274.89L56.9576 274.985L53.6489 279.188Z" fill="#6C63FF"/>
<path d="M53.6703 278.878L56.8753 274.807C56.1935 273.566 55.2072 272.517 54.0086 271.759C53.9499 271.724 53.8909 271.691 53.8318 271.658C53.8493 272.139 53.9333 274.961 53.6703 278.878Z" fill="#6C63FF"/>
<path d="M50.7787 294.837C50.6378 295.265 50.4924 295.686 50.3424 296.098L58.3918 291.388L58.4031 291.506C58.5712 290.774 58.7113 290.041 58.8233 289.309L50.786 294.891L50.7787 294.837Z" fill="#6C63FF"/>
<path d="M51.8982 290.884L59.1478 284.917L59.1684 285.029C59.1939 283.055 58.9853 281.086 58.5468 279.162L52.9768 285.327C52.6842 287.271 52.3247 289.123 51.8982 290.884Z" fill="#6C63FF"/>
<path d="M52.8524 285.21L44.1778 275.55L44.2242 275.441C43.4088 276.587 42.7115 277.812 42.1429 279.098L52.0419 289.617C52.3811 288.081 52.6459 286.595 52.8524 285.21Z" fill="#6C63FF"/>
<path d="M42.0492 279.316L42.0496 279.316C42.0652 279.28 42.0788 279.241 42.0946 279.205L42.0492 279.316Z" fill="#6C63FF"/>
<path d="M41.5667 280.5L41.5219 280.611C41.5361 280.573 41.5526 280.538 41.5669 280.5L41.5667 280.5Z" fill="#6C63FF"/>
<path d="M51.9848 289.873L42.0496 279.316C41.8816 279.7 41.7207 280.095 41.5668 280.5L51.7212 290.989C51.8136 290.615 51.9014 290.243 51.9848 289.873Z" fill="#6C63FF"/>
<path d="M58.8445 289.168C59.0424 287.84 59.1502 286.501 59.1672 285.158L51.8196 291.206C51.5284 292.379 51.2081 293.506 50.8586 294.588L58.8289 289.053L58.8445 289.168Z" fill="#6C63FF"/>
<path d="M40.2493 289.92L48.2915 300.392C48.9522 299.118 49.5358 297.805 50.039 296.46L40.226 286.174C40.1287 287.46 40.1179 288.751 40.1937 290.038L40.2493 289.92Z" fill="#6C63FF"/>
<path d="M53.6849 271.649L53.7569 271.617C51.9957 270.678 50.089 270.779 48.2614 271.731L53.5286 278.871C53.8121 274.633 53.6868 271.692 53.6849 271.649Z" fill="#6C63FF"/>
<path d="M50.0814 296.799C49.6198 298.008 49.0925 299.192 48.5019 300.344L56.5915 296.167L56.5996 296.283C57.2091 295.256 57.6857 294.155 58.018 293.008C58.1465 292.557 58.2637 292.104 58.3698 291.65L50.2244 296.417C50.1768 296.544 50.1298 296.673 50.0814 296.799Z" fill="#6C63FF"/>
<path d="M53.5068 279.187L48.1189 271.883L48.1694 271.779C46.6273 272.67 45.3021 273.89 44.289 275.353L52.893 284.934C53.1908 282.883 53.3836 280.932 53.5068 279.187Z" fill="#6C63FF"/>
<path d="M50.1271 296.224C50.727 294.591 51.2383 292.927 51.6588 291.239L41.4792 280.724C41.2368 281.381 41.0143 282.064 40.8115 282.774C40.5301 283.791 40.3422 284.832 40.2503 285.883L50.1194 296.229L50.1271 296.224Z" fill="#6C63FF"/>
<path d="M60.5831 307.569C59.3588 308.848 57.9463 310.244 56.3874 311.65L64.4634 310.469L64.4218 310.566C65.0948 309.232 65.5761 307.81 65.8513 306.342L65.8171 306.438L60.5831 307.569Z" fill="#6C63FF"/>
<path d="M65.6081 302.076C65.5851 302.011 65.5606 301.948 65.536 301.886C65.2422 302.267 63.5031 304.494 60.7974 307.344L65.8675 306.249C66.136 304.858 66.0467 303.422 65.6081 302.076V302.076Z" fill="#6C63FF"/>
<path d="M48.3713 317.795C47.9893 318.035 47.6087 318.266 47.2295 318.488L56.4394 319.984L56.3725 320.082C56.9701 319.625 57.546 319.15 58.1003 318.658L48.3425 317.841L48.3713 317.795Z" fill="#6C63FF"/>
<path d="M51.7601 315.462L61.1571 315.481L61.1016 315.58C62.3822 314.077 63.4799 312.428 64.3717 310.667L56.1418 311.869C54.6748 313.18 53.2142 314.377 51.7601 315.462Z" fill="#6C63FF"/>
<path d="M48.5921 317.654L58.2685 318.464L58.2068 318.562C59.2078 317.666 60.1469 316.702 61.0179 315.679L51.4939 315.66C50.5201 316.378 49.5529 317.043 48.5921 317.654Z" fill="#6C63FF"/>
<path d="M36.7401 322.433C36.8086 322.364 36.8812 322.289 36.9527 322.215C38.9258 321.901 40.8539 321.352 42.6953 320.578L42.9583 313.618C43.0363 313.44 43.1121 313.262 43.1857 313.082L42.9058 320.49C44.2293 319.929 45.5179 319.289 46.7646 318.574L45.866 305.635C45.9353 305.599 46.005 305.562 46.0769 305.524L46.9744 318.447L46.9832 318.448C48.4888 317.572 49.9461 316.616 51.3486 315.584L50.3701 302.851C50.4394 302.8 50.5085 302.751 50.5779 302.699L51.5564 315.431C51.8668 315.201 52.1723 314.971 52.473 314.739L51.6658 301.849C51.7349 301.793 51.804 301.736 51.873 301.679L52.6808 314.578C53.9231 313.611 55.077 312.635 56.121 311.7L55.6133 298.738L55.7188 298.684C55.3583 298.777 54.9917 298.889 54.6221 299.01C55.3172 298.218 55.9424 297.367 56.4908 296.468L48.3238 300.685C47.7585 301.757 47.1227 302.79 46.4205 303.778C46.2745 303.916 46.1285 304.053 45.9847 304.196L45.9954 304.351C45.9288 304.439 45.8625 304.527 45.795 304.613L45.7805 304.404C45.6775 304.51 45.5769 304.622 45.475 304.73C46.5093 303.441 47.4169 302.056 48.1855 300.594L40.2022 290.199C40.2566 291.128 40.3476 292.064 40.4647 292.991C39.7235 291.789 38.8233 290.691 37.7885 289.728L37.8514 289.808L36.0063 294.826C36.434 296.543 36.8593 298.481 37.214 300.547L40.4928 293.21C40.5078 293.324 40.5237 293.438 40.5394 293.552L37.2685 300.872C37.5921 302.81 37.8238 304.682 37.9636 306.489L41.8894 300.335C41.9119 300.423 41.9343 300.512 41.9567 300.599L37.9886 306.819C38.0749 308.025 38.1195 309.196 38.1223 310.333L42.9211 304.014C42.9467 304.097 42.9717 304.178 42.9966 304.257L38.1469 310.643L38.1233 310.594C38.122 311.045 38.1138 311.489 38.0989 311.928L43.512 305.845C43.5408 305.93 43.5675 306.008 43.5921 306.08L38.0853 312.267C38.0797 312.403 38.0747 312.54 38.0677 312.675C38.0033 313.967 37.8684 315.256 37.6636 316.534L38.186 316.006C38.0871 316.211 37.9907 316.413 37.8969 316.612L37.5996 316.912C37.5655 317.108 37.5267 317.298 37.4892 317.491C37.3796 317.731 37.2739 317.966 37.1722 318.194C37.2703 317.755 37.3619 317.314 37.4401 316.869L26.6283 309.446C29.449 316.648 34.7607 323.499 35.1008 323.934C35.3768 323.419 35.6276 322.89 35.8579 322.349C35.9248 322.343 35.9917 322.337 36.0586 322.33C36.031 322.396 36.0022 322.461 35.9741 322.527C35.9404 322.531 35.9062 322.536 35.8726 322.54C35.8988 322.547 35.9302 322.555 35.9587 322.563C35.7965 322.941 35.6284 323.312 35.4481 323.671C35.684 323.459 36.0435 323.124 36.4732 322.7C39.0156 323.347 45.8647 324.732 51.7291 322.686L42.7439 320.735C40.8211 321.548 38.8043 322.118 36.7401 322.433V322.433ZM43.0539 311.086L43.2694 310.868L43.2571 311.194L43.0416 311.412L43.0539 311.086Z" fill="#6C63FF"/>
<path d="M65.4284 301.785L65.5045 301.807C64.7482 299.962 63.2152 298.826 61.1992 298.396L60.6929 307.248C63.6195 304.165 65.403 301.819 65.4284 301.785Z" fill="#6C63FF"/>
<path d="M46.5808 318.861C45.4523 319.499 44.2897 320.075 43.0984 320.587L51.9984 322.519L51.9305 322.614C53.0566 322.21 54.127 321.666 55.116 320.994C55.5034 320.728 55.883 320.454 56.2547 320.172L46.935 318.658C46.8169 318.726 46.6987 318.795 46.5808 318.861Z" fill="#6C63FF"/>
<path d="M56.329 311.513C57.8691 310.122 59.2645 308.743 60.4744 307.477L60.9924 298.422L61.0978 298.374C59.341 298.078 57.5404 298.175 55.8254 298.656L56.329 311.513Z" fill="#6C63FF"/>
<path d="M37.7181 289.664C36.685 288.694 35.4221 288 34.0475 287.649C33.9808 287.634 33.9145 287.621 33.8483 287.608C34.0138 288.06 34.9678 290.718 35.9307 294.524L37.7181 289.664Z" fill="#6C63FF"/>
<path d="M37.1139 300.799L25.8724 294.288L25.8827 294.17C25.4621 295.511 25.1784 296.891 25.0358 298.289L37.7078 305.239C37.5549 303.675 37.3464 302.179 37.1139 300.799Z" fill="#6C63FF"/>
<path d="M25.0141 298.525L25.0145 298.526C25.0183 298.487 25.0191 298.445 25.0231 298.406L25.0141 298.525Z" fill="#6C63FF"/>
<path d="M24.922 299.801L24.9138 299.92C24.9155 299.879 24.9205 299.841 24.9224 299.801L24.922 299.801Z" fill="#6C63FF"/>
<path d="M37.7328 305.501L25.0145 298.525C24.9737 298.942 24.943 299.368 24.9224 299.801L37.828 306.644C37.7999 306.259 37.7682 305.878 37.7328 305.501Z" fill="#6C63FF"/>
<path d="M37.9225 312.365L25.4042 305.61C25.71 306.863 26.0996 308.094 26.5703 309.295L26.5867 309.166L37.4783 316.644C37.7119 315.228 37.8603 313.799 37.9225 312.365V312.365Z" fill="#6C63FF"/>
<path d="M33.7058 287.645L33.7644 287.592C31.7985 287.242 30.0164 287.926 28.5732 289.396L35.7938 294.561C34.7509 290.444 33.7207 287.685 33.7058 287.645Z" fill="#6C63FF"/>
<path d="M35.8709 294.868L28.4847 289.584L28.5006 289.47C27.3097 290.792 26.4274 292.362 25.917 294.065L37.0669 300.523C36.7148 298.481 36.2939 296.566 35.8709 294.868Z" fill="#6C63FF"/>
<path d="M37.9332 312.114C37.998 310.376 37.9689 308.636 37.8461 306.901L24.9083 300.041C24.8813 300.74 24.8812 301.459 24.908 302.196C24.9555 303.25 25.0992 304.298 25.3374 305.327L37.9273 312.121L37.9332 312.114Z" fill="#6C63FF"/>
<path d="M436.344 277.849C436.219 279.615 436.023 281.589 435.721 283.663L441.186 277.614L441.217 277.715C440.882 276.259 440.344 274.857 439.618 273.551L439.653 273.647L436.344 277.849Z" fill="#6C63FF"/>
<path d="M436.365 277.54L439.571 273.469C438.889 272.227 437.902 271.178 436.704 270.42C436.645 270.385 436.586 270.352 436.527 270.32C436.545 270.801 436.628 273.623 436.365 277.54Z" fill="#6C63FF"/>
<path d="M433.474 293.499C433.333 293.927 433.188 294.347 433.038 294.76L441.087 290.049L441.098 290.168C441.266 289.435 441.407 288.703 441.518 287.97L433.481 293.553L433.474 293.499Z" fill="#6C63FF"/>
<path d="M434.593 289.545L441.843 283.578L441.864 283.69C441.889 281.717 441.681 279.748 441.242 277.824L435.672 283.989C435.379 285.932 435.02 287.784 434.593 289.545Z" fill="#6C63FF"/>
<path d="M435.548 283.872L426.873 274.212L426.919 274.103C426.104 275.248 425.407 276.474 424.838 277.759L434.737 288.278C435.076 286.743 435.341 285.256 435.548 283.872Z" fill="#6C63FF"/>
<path d="M424.744 277.977L424.745 277.977C424.76 277.942 424.774 277.902 424.79 277.867L424.744 277.977Z" fill="#6C63FF"/>
<path d="M434.68 288.534L424.745 277.977C424.577 278.361 424.416 278.756 424.262 279.162L434.416 289.651C434.509 289.276 434.597 288.904 434.68 288.534Z" fill="#6C63FF"/>
<path d="M424.262 279.162L424.217 279.272C424.231 279.234 424.248 279.2 424.262 279.162L424.262 279.162Z" fill="#6C63FF"/>
<path d="M441.54 287.829C441.738 286.502 441.845 285.162 441.862 283.82L434.515 289.867C434.224 291.04 433.903 292.168 433.554 293.25L441.524 287.714L441.54 287.829Z" fill="#6C63FF"/>
<path d="M422.944 288.582L430.987 299.054C431.647 297.779 432.231 296.466 432.734 295.122L422.921 284.835C422.824 286.121 422.813 287.412 422.889 288.699L422.944 288.582Z" fill="#6C63FF"/>
<path d="M436.38 270.311L436.452 270.279C434.691 269.34 432.784 269.441 430.957 270.393L436.224 277.533C436.507 273.295 436.382 270.353 436.38 270.311Z" fill="#6C63FF"/>
<path d="M432.777 295.46C432.315 296.67 431.788 297.853 431.197 299.006L439.287 294.829L439.295 294.945C439.904 293.917 440.381 292.817 440.713 291.669C440.842 291.218 440.959 290.766 441.065 290.312L432.92 295.078C432.872 295.206 432.825 295.334 432.777 295.46Z" fill="#6C63FF"/>
<path d="M436.202 277.848L430.814 270.544L430.865 270.44C429.323 271.331 427.997 272.551 426.984 274.014L435.588 283.595C435.886 281.544 436.079 279.593 436.202 277.848Z" fill="#6C63FF"/>
<path d="M432.822 294.886C433.422 293.253 433.933 291.589 434.354 289.901L424.174 279.386C423.932 280.043 423.709 280.726 423.507 281.435C423.225 282.453 423.037 283.493 422.945 284.545L432.815 294.89L432.822 294.886Z" fill="#6C63FF"/>
<path d="M443.278 306.23C442.054 307.51 440.641 308.906 439.083 310.311L447.159 309.131L447.117 309.228C447.79 307.894 448.271 306.472 448.547 305.003L448.512 305.099L443.278 306.23Z" fill="#6C63FF"/>
<path d="M448.303 300.737C448.28 300.673 448.256 300.61 448.231 300.547C447.937 300.929 446.198 303.156 443.493 306.005L448.563 304.91C448.831 303.519 448.742 302.084 448.303 300.737V300.737Z" fill="#6C63FF"/>
<path d="M431.066 316.456C430.684 316.696 430.304 316.927 429.925 317.149L439.135 318.645L439.068 318.744C439.665 318.287 440.241 317.812 440.796 317.319L431.038 316.502L431.066 316.456Z" fill="#6C63FF"/>
<path d="M434.455 314.124L443.852 314.143L443.797 314.242C445.077 312.739 446.175 311.089 447.067 309.328L438.837 310.531C437.37 311.841 435.909 313.039 434.455 314.124Z" fill="#6C63FF"/>
<path d="M431.287 316.315L440.964 317.125L440.902 317.224C441.903 316.327 442.842 315.364 443.713 314.341L434.189 314.322C433.215 315.039 432.248 315.704 431.287 316.315Z" fill="#6C63FF"/>
<path d="M419.435 321.094C419.504 321.025 419.576 320.95 419.648 320.877C421.621 320.563 423.549 320.013 425.39 319.239L425.653 312.279C425.731 312.102 425.807 311.923 425.881 311.744L425.601 319.151C426.924 318.59 428.213 317.95 429.46 317.235L428.561 304.296C428.63 304.26 428.7 304.224 428.772 304.186L429.67 317.108L429.678 317.109C431.184 316.234 432.641 315.277 434.044 314.245L433.065 301.512C433.135 301.462 433.204 301.412 433.273 301.361L434.252 314.092C434.562 313.863 434.868 313.632 435.168 313.4L434.361 300.511C434.43 300.454 434.499 300.398 434.568 300.34L435.376 313.239C436.618 312.273 437.772 311.296 438.816 310.361L438.308 297.399L438.414 297.345C438.053 297.439 437.687 297.55 437.317 297.671C438.012 296.879 438.638 296.029 439.186 295.129L431.019 299.346C430.454 300.418 429.818 301.451 429.116 302.439C428.97 302.577 428.824 302.714 428.68 302.858L428.691 303.013C428.624 303.1 428.558 303.188 428.49 303.274L428.476 303.066C428.373 303.171 428.272 303.283 428.17 303.391C429.204 302.103 430.112 300.718 430.881 299.256L422.897 288.86C422.952 289.79 423.043 290.725 423.16 291.653C422.419 290.45 421.518 289.352 420.484 288.389L420.547 288.47L418.701 293.487C419.129 295.204 419.555 297.142 419.909 299.209L423.188 291.871C423.203 291.985 423.219 292.1 423.235 292.214L419.964 299.533C420.287 301.471 420.519 303.344 420.659 305.15L424.585 298.996C424.607 299.085 424.629 299.173 424.652 299.26L420.684 305.481C420.77 306.686 420.815 307.857 420.817 308.994L425.616 302.675C425.642 302.758 425.667 302.839 425.692 302.919L420.842 309.305L420.819 309.256C420.817 309.706 420.809 310.151 420.794 310.589L426.207 304.507C426.236 304.591 426.263 304.67 426.287 304.741L420.781 310.929C420.775 311.065 420.77 311.201 420.763 311.336C420.699 312.629 420.564 313.917 420.359 315.195L420.881 314.667C420.782 314.872 420.686 315.074 420.592 315.273L420.295 315.574C420.261 315.769 420.222 315.96 420.184 316.152C420.075 316.392 419.969 316.627 419.867 316.856C419.966 316.417 420.057 315.976 420.135 315.53L409.324 308.107C412.144 315.309 417.456 322.16 417.796 322.595C418.072 322.081 418.323 321.551 418.553 321.011C418.62 321.004 418.687 320.998 418.754 320.991C418.726 321.057 418.697 321.123 418.669 321.189C418.636 321.192 418.601 321.198 418.568 321.201C418.594 321.208 418.625 321.217 418.654 321.225C418.492 321.602 418.324 321.974 418.143 322.332C418.379 322.12 418.739 321.786 419.168 321.361C421.711 322.009 428.56 323.394 434.424 321.348L425.439 319.397C423.516 320.209 421.499 320.78 419.435 321.094V321.094ZM425.749 309.747L425.965 309.53L425.952 309.856L425.737 310.074L425.749 309.747Z" fill="#6C63FF"/>
<path d="M448.124 300.447L448.2 300.468C447.443 298.623 445.91 297.487 443.894 297.057L443.388 305.909C446.315 302.826 448.098 300.481 448.124 300.447Z" fill="#6C63FF"/>
<path d="M429.276 317.523C428.147 318.161 426.985 318.737 425.794 319.248L434.694 321.18L434.626 321.275C435.752 320.872 436.822 320.327 437.811 319.655C438.199 319.389 438.578 319.116 438.95 318.834L429.63 317.32C429.512 317.388 429.394 317.457 429.276 317.523Z" fill="#6C63FF"/>
<path d="M439.024 310.174C440.564 308.784 441.96 307.404 443.17 306.139L443.688 297.084L443.793 297.036C442.036 296.74 440.236 296.836 438.521 297.318L439.024 310.174Z" fill="#6C63FF"/>
<path d="M420.413 288.326C419.38 287.355 418.117 286.662 416.743 286.31C416.676 286.295 416.61 286.282 416.543 286.27C416.709 286.721 417.663 289.38 418.626 293.186L420.413 288.326Z" fill="#6C63FF"/>
<path d="M419.809 299.46L408.568 292.949L408.578 292.831C408.157 294.172 407.874 295.553 407.731 296.951L420.403 303.901C420.25 302.336 420.042 300.841 419.809 299.46Z" fill="#6C63FF"/>
<path d="M407.617 298.462L407.609 298.581C407.611 298.541 407.616 298.503 407.618 298.462L407.617 298.462Z" fill="#6C63FF"/>
<path d="M407.709 297.187L407.71 297.187C407.714 297.148 407.714 297.107 407.718 297.068L407.709 297.187Z" fill="#6C63FF"/>
<path d="M420.428 304.162L407.71 297.187C407.669 297.604 407.638 298.029 407.618 298.462L420.523 305.305C420.495 304.921 420.463 304.54 420.428 304.162Z" fill="#6C63FF"/>
<path d="M420.618 311.027L408.099 304.271C408.405 305.524 408.795 306.755 409.266 307.956L409.282 307.827L420.173 315.305C420.407 313.889 420.555 312.461 420.618 311.027V311.027Z" fill="#6C63FF"/>
<path d="M416.401 286.307L416.46 286.254C414.494 285.904 412.712 286.588 411.268 288.057L418.489 293.223C417.446 289.105 416.416 286.346 416.401 286.307Z" fill="#6C63FF"/>
<path d="M418.566 293.53L411.18 288.246L411.196 288.131C410.005 289.454 409.123 291.023 408.612 292.727L419.762 299.185C419.41 297.142 418.989 295.227 418.566 293.53Z" fill="#6C63FF"/>
<path d="M420.628 310.776C420.693 309.037 420.664 307.297 420.541 305.562L407.604 298.702C407.576 299.402 407.576 300.12 407.603 300.858C407.651 301.912 407.794 302.96 408.033 303.988L420.622 310.782L420.628 310.776Z" fill="#6C63FF"/>
<path d="M27.1872 324.383H450.119V330.423C450.119 332.963 449.108 335.399 447.308 337.195C445.509 338.991 443.068 340 440.523 340H36.7835C34.2384 340 31.7976 338.991 29.9979 337.195C28.1983 335.399 27.1872 332.963 27.1872 330.423V324.383Z" fill="#2F2E41"/>
<path d="M450.119 319.475H27.1872V327.953H450.119V319.475Z" fill="#3F3D56"/>
<path d="M354.956 29.4372L359.814 32.5114L356.865 27.1599C357.7 26.4947 358.733 26.1265 359.802 26.1135C359.828 26.1135 359.854 26.1138 359.88 26.1142C360.218 26.1196 360.555 26.0947 360.888 26.0398L362.534 27.0816L361.828 25.8011C362.995 25.3952 364.002 24.6318 364.708 23.6199L367.654 25.4847L365.793 22.1072C367.516 20.043 369.838 18.7773 372.394 18.7773C375.458 18.7773 378.187 20.5959 379.949 23.4293C380.47 24.2771 381.206 24.9723 382.083 25.4442C382.96 25.9162 383.947 26.1482 384.943 26.1166C384.997 26.1146 385.052 26.1135 385.107 26.1135C388.49 26.1135 391.232 29.941 391.232 34.6623C391.232 39.3837 388.49 43.2111 385.107 43.2111C384.364 43.2084 383.632 43.0255 382.974 42.6781C381.823 42.1197 380.564 41.8175 379.284 41.7925C378.004 41.7675 376.734 42.0204 375.562 42.5335C374.571 42.9777 373.498 43.2086 372.412 43.2111C371.326 43.2136 370.252 42.9877 369.26 42.548C368.096 42.0447 366.838 41.7969 365.571 41.8213C364.303 41.8458 363.055 42.142 361.913 42.6898C361.261 43.0297 360.537 43.2085 359.802 43.2111C356.42 43.2111 353.678 39.3837 353.678 34.6623C353.658 32.8411 354.098 31.0442 354.956 29.4372V29.4372Z" fill="#F2F2F2"/>
<path d="M107.833 54.5444L110.923 56.5L109.047 53.0957C109.578 52.6726 110.235 52.4384 110.915 52.4301C110.932 52.4301 110.948 52.4303 110.965 52.4306C111.18 52.434 111.394 52.4182 111.606 52.3833L112.653 53.046L112.204 52.2315C112.946 51.9732 113.587 51.4876 114.036 50.8439L115.91 52.0301L114.726 49.8816C115.225 49.2398 115.86 48.7167 116.587 48.3503C117.313 47.984 118.112 47.7835 118.925 47.7634C120.874 47.7634 122.61 48.9202 123.731 50.7227C124.062 51.2619 124.531 51.7042 125.089 52.0044C125.647 52.3046 126.274 52.4522 126.908 52.4321C126.943 52.4308 126.978 52.4302 127.013 52.4301C129.164 52.4301 130.908 54.8649 130.908 57.8682C130.908 60.8716 129.164 63.3063 127.013 63.3063C126.539 63.3045 126.074 63.1882 125.656 62.9672C124.923 62.612 124.122 62.4198 123.308 62.4039C122.494 62.388 121.686 62.5488 120.94 62.8752C120.31 63.1578 119.628 63.3047 118.937 63.3063C118.246 63.3079 117.563 63.1642 116.931 62.8845C116.191 62.5643 115.391 62.4067 114.585 62.4222C113.778 62.4378 112.985 62.6262 112.258 62.9747C111.843 63.1909 111.383 63.3046 110.915 63.3063C108.763 63.3063 107.019 60.8716 107.019 57.8682C107.007 56.7097 107.286 55.5667 107.833 54.5444Z" fill="#F2F2F2"/>
<path d="M24.677 65.0275L27.7669 66.9831L25.8909 63.5789C26.4222 63.1558 27.0797 62.9216 27.7593 62.9133C27.776 62.9133 27.7925 62.9135 27.8091 62.9138C28.0238 62.9172 28.2383 62.9014 28.4502 62.8665L29.4973 63.5292L29.0484 62.7146C29.7903 62.4564 30.4315 61.9708 30.8803 61.3271L32.7545 62.5133L31.5705 60.3648C32.0691 59.7229 32.7046 59.1999 33.4308 58.8335C34.1571 58.4671 34.956 58.2666 35.7695 58.2466C37.7185 58.2466 39.4546 59.4034 40.5754 61.2058C40.9067 61.7451 41.3751 62.1873 41.933 62.4875C42.4909 62.7878 43.1185 62.9353 43.752 62.9152C43.7868 62.914 43.8218 62.9133 43.8568 62.9133C46.0084 62.9133 47.7526 65.348 47.7526 68.3514C47.7526 71.3548 46.0084 73.7895 43.8568 73.7895C43.3837 73.7877 42.918 73.6714 42.4998 73.4504C41.7674 73.0952 40.9665 72.9029 40.1523 72.8871C39.3381 72.8712 38.5302 73.032 37.7845 73.3584C37.1544 73.641 36.4718 73.7879 35.781 73.7895C35.0903 73.7911 34.407 73.6473 33.7756 73.3677C33.0356 73.0475 32.2353 72.8898 31.429 72.9054C30.6226 72.9209 29.829 73.1093 29.102 73.4578C28.6875 73.6741 28.227 73.7878 27.7593 73.7895C25.6077 73.7895 23.8635 71.3548 23.8635 68.3514C23.851 67.1929 24.1308 66.0498 24.677 65.0275V65.0275Z" fill="#F2F2F2"/>
<path d="M136.232 266.317L135.693 266.856C135.693 266.856 135.873 272.78 136.052 274.037C136.232 275.294 136.952 277.448 136.412 279.064C135.873 280.68 135.693 281.937 135.873 282.116C136.052 282.296 135.693 283.014 135.693 283.014L137.132 282.116L139.47 276.73L138.391 270.985L136.232 266.317Z" fill="#6C63FF"/>
<path opacity="0.1" d="M136.232 266.317L135.693 266.856C135.693 266.856 135.873 272.78 136.052 274.037C136.232 275.294 136.952 277.448 136.412 279.064C135.873 280.68 135.693 281.937 135.873 282.116C136.052 282.296 135.693 283.014 135.693 283.014L137.132 282.116L139.47 276.73L138.391 270.985L136.232 266.317Z" fill="black"/>
<path d="M145.766 322.153C145.766 322.153 145.766 320.178 145.407 319.819C145.047 319.46 144.507 318.203 143.788 318.203C143.068 318.203 140.55 318.921 140.55 319.101C140.57 319.661 140.446 320.217 140.19 320.716C139.83 321.255 137.851 323.409 139.83 323.768C140.488 323.876 141.161 323.853 141.809 323.698C142.458 323.544 143.069 323.263 143.608 322.871C143.788 322.691 144.507 322.512 144.687 322.691C144.867 322.871 145.766 322.153 145.766 322.153Z" fill="#6C63FF"/>
<path d="M150.803 318.921L151.883 320.896C151.883 320.896 152.242 322.691 152.782 322.871H153.322C153.322 322.871 153.862 324.846 155.121 324.666C156.38 324.487 157.819 323.768 157.819 323.409C157.819 323.05 157.819 321.973 157.279 321.614C156.523 320.997 155.802 320.338 155.121 319.639L154.221 318.741L150.803 318.921Z" fill="#6C63FF"/>
<path d="M136.998 253.156C136.652 253.332 136.353 253.589 136.127 253.904C135.9 254.22 135.754 254.585 135.698 254.969C135.598 256.251 136.868 257.459 136.459 258.678C136.227 259.37 135.505 259.819 135.297 260.519C135.188 261.077 135.27 261.656 135.53 262.162C135.814 262.855 136.16 263.522 136.564 264.155C137.322 265.343 138.309 266.47 138.511 267.864C138.568 268.108 138.565 268.362 138.504 268.605C138.443 268.847 138.325 269.072 138.16 269.26C138.525 268.985 138.943 268.786 139.388 268.678C141.226 268.065 142.934 267.115 144.425 265.878C144.966 265.498 145.374 264.957 145.59 264.333C145.864 263.229 145.025 262.126 145.106 260.992C145.157 260.267 145.577 259.627 145.814 258.939C146.02 258.255 146.086 257.536 146.007 256.826C145.928 256.116 145.707 255.429 145.355 254.806C145.064 254.204 144.653 253.667 144.148 253.228C143.642 252.79 143.052 252.458 142.415 252.254C141.433 252.026 140.409 252.055 139.443 252.339C138.598 252.514 137.778 252.788 136.998 253.156V253.156Z" fill="#2F2E41"/>
<path d="M138.01 263.111C138.407 262.377 138.993 261.762 139.709 261.331C140.424 260.9 141.243 260.669 142.079 260.662C144.957 260.662 144.417 260.482 144.417 260.482L143.518 264.073L141.719 265.868L138.01 263.111Z" fill="#6C63FF"/>
<path d="M138.751 259.315C138.751 259.315 140.37 262.008 139.29 263.085C138.211 264.163 138.751 265.24 138.931 265.419C139.111 265.599 144.147 265.958 144.147 265.958L144.327 263.444L144.867 261.29C144.867 261.29 141.989 260.751 142.349 259.495C142.708 258.238 138.751 259.315 138.751 259.315Z" fill="#FBBEBE"/>
<path opacity="0.1" d="M138.751 259.315C138.751 259.315 140.37 262.008 139.29 263.085C138.211 264.163 138.751 265.24 138.931 265.419C139.111 265.599 144.147 265.958 144.147 265.958L144.327 263.444L144.867 261.29C144.867 261.29 141.989 260.751 142.349 259.495C142.708 258.238 138.751 259.315 138.751 259.315Z" fill="black"/>
<path d="M151.343 284.809C151.15 285.426 150.91 286.026 150.624 286.605C150.444 286.784 149.904 285.348 149.904 285.348L150.444 284.091L151.343 284.809Z" fill="#FBBEBE"/>
<path d="M149.274 276.64L149.994 280.77H139.2L139.74 276.64H149.274Z" fill="#FBBEBE"/>
<path d="M140.73 260.752C142.617 260.752 144.147 259.224 144.147 257.34C144.147 255.456 142.617 253.929 140.73 253.929C138.842 253.929 137.312 255.456 137.312 257.34C137.312 259.224 138.842 260.752 140.73 260.752Z" fill="#FBBEBE"/>
<path d="M141.449 264.342C141.449 264.342 139.47 264.522 139.47 264.163C139.47 263.804 139.29 262.726 138.931 262.906C138.571 263.086 136.232 263.265 136.412 263.804C136.592 264.342 136.952 265.419 136.592 265.419C136.437 265.451 136.289 265.514 136.159 265.604C136.028 265.695 135.918 265.811 135.834 265.945C135.749 266.079 135.694 266.229 135.669 266.386C135.645 266.543 135.653 266.702 135.693 266.856C135.873 267.753 137.851 273.14 137.851 273.14C137.851 273.14 138.031 274.935 138.571 275.473C138.79 275.756 138.91 276.103 138.91 276.461C138.91 276.818 138.79 277.166 138.571 277.448C138.211 277.807 139.47 278.167 140.01 278.885C140.55 279.603 144.687 279.064 144.867 278.885C145.047 278.705 149.364 278.705 149.724 278.346C150.084 277.987 149.544 276.91 149.544 276.91C149.544 276.91 149.364 275.294 149.544 274.755C149.724 274.217 148.825 265.42 148.285 264.881C147.745 264.342 149.904 262.726 149.904 262.726C149.904 262.726 149.544 261.29 147.206 261.111C147.206 261.111 146.486 260.033 145.766 260.033C145.047 260.033 143.485 260.869 143.485 260.869C143.485 260.869 143.068 263.265 142.528 263.445C142.102 263.653 141.732 263.961 141.449 264.342Z" fill="#6C63FF"/>
<path d="M148.645 262.188L149.904 262.727C149.904 262.727 153.502 273.858 153.142 276.012C152.782 278.167 151.883 285.528 151.343 285.528C150.803 285.528 149.724 284.45 149.724 284.45V282.655C149.724 282.296 149.184 281.219 149.544 281.219C149.904 281.219 150.444 280.86 150.084 280.501C149.724 280.142 149.364 279.603 149.724 279.064C150.084 278.526 150.264 278.346 150.084 277.808C149.904 277.269 149.544 276.73 149.904 276.371C150.264 276.012 149.004 274.217 149.004 274.217L147.026 266.317L147.385 263.086L148.645 262.188Z" fill="#6C63FF"/>
<path d="M149.364 279.244C149.364 279.244 142.528 278.705 141.629 278.705C140.73 278.705 138.712 277.86 138.712 277.86C138.712 277.86 133.534 283.014 135.333 291.452C137.132 299.89 137.492 310.303 138.571 313.355C139.304 315.531 139.905 317.75 140.37 319.998C140.37 319.998 142.169 316.767 145.587 320.357C145.587 320.357 145.946 317.664 145.407 316.587C144.867 315.51 144.147 309.765 144.147 309.765C144.147 309.765 142.888 300.608 142.888 299.531C142.888 298.454 142.169 289.298 142.349 289.118C142.528 288.939 143.428 296.12 143.608 297.377C143.788 298.633 144.327 308.328 144.867 309.406C145.407 310.483 147.925 319.1 149.364 319.639C150.803 320.178 155.66 319.46 155.481 319.1C155.301 318.741 154.041 316.767 153.682 316.228L152.242 314.073L148.825 302.404L150.444 288.22C150.444 288.22 151.343 279.064 149.364 279.244Z" fill="#2F2E41"/>
<path d="M142.812 256.892H138.429C138.243 256.892 138.063 256.825 137.921 256.705C137.78 256.584 137.686 256.417 137.657 256.234L137.222 253.48H144.058L143.446 256.378C143.416 256.523 143.336 256.653 143.22 256.747C143.105 256.841 142.96 256.892 142.812 256.892Z" fill="#2F2E41"/>
<path d="M368.708 256.042H375.624V265.902C374.716 265.902 373.817 265.723 372.978 265.376C372.139 265.029 371.376 264.521 370.734 263.88C370.092 263.239 369.582 262.478 369.235 261.641C368.887 260.803 368.708 259.906 368.708 259V256.042Z" fill="#2F2E41"/>
<path d="M364.675 313.805L364.181 316.27H367.638L367.803 313.805H364.675Z" fill="#A0616A"/>
<path d="M364.674 315.777C364.674 315.777 364.016 315.284 363.686 315.613C363.357 315.941 362.205 322.35 362.04 322.515C361.875 322.679 356.935 325.144 358.088 325.308C359.241 325.473 363.686 325.637 364.345 325.308C365.004 324.98 366.815 321.857 366.815 321.857V324.651H367.144C367.144 324.651 367.474 321.693 368.297 320.871C369.12 320.05 367.638 317.256 367.638 317.256C367.638 317.256 367.968 315.448 367.803 315.448C367.638 315.448 364.674 315.777 364.674 315.777Z" fill="#6C63FF"/>
<path d="M374.883 312.079L374.389 314.545H377.847L378.012 312.079H374.883Z" fill="#A0616A"/>
<path d="M370.931 296.057C370.931 296.057 372.578 300.987 372.907 301.48C373.237 301.973 374.389 311.176 374.389 311.176C374.389 311.176 373.237 312.983 374.719 313.148C376.2 313.312 375.542 312.819 376.53 313.148C376.798 313.249 377.087 313.287 377.372 313.258C377.658 313.23 377.933 313.136 378.176 312.983C378.176 312.983 378.67 311.997 378.341 311.669C378.012 311.34 378.67 302.795 378.67 302.795L377.682 299.837L376.859 290.47C376.859 290.47 377.847 288.005 377.353 287.347C376.859 286.69 375.213 287.84 375.213 287.84L370.931 296.057Z" fill="#2F2E41"/>
<path d="M368.791 283.239C368.791 283.239 368.297 288.497 367.968 288.826C367.638 289.155 364.016 298.358 364.016 298.358C364.016 298.358 363.028 299.508 363.357 303.781C363.686 308.053 364.51 312.326 364.51 312.326C364.51 312.326 363.851 314.791 365.004 314.791C366.156 314.791 366.65 314.134 367.144 314.627C367.638 315.12 367.968 314.627 368.132 314.298C368.297 313.969 368.955 312.819 368.955 312.49C368.955 312.162 369.614 303.781 369.614 303.781C369.614 303.781 375.048 291.784 375.542 291.127C376.036 290.47 378.835 286.854 378.67 284.389L368.791 283.239Z" fill="#2F2E41"/>
<path d="M372.907 261.054C374.817 261.054 376.365 259.509 376.365 257.603C376.365 255.697 374.817 254.152 372.907 254.152C370.998 254.152 369.449 255.697 369.449 257.603C369.449 259.509 370.998 261.054 372.907 261.054Z" fill="#A0616A"/>
<path d="M372.249 260.561C372.249 260.561 373.566 263.519 373.731 264.34C373.895 265.162 377.024 262.697 377.024 262.697C377.024 262.697 375.377 259.903 375.871 258.589L372.249 260.561Z" fill="#A0616A"/>
<path d="M377.518 262.204C377.518 262.204 375.048 260.396 373.237 264.176C371.425 267.956 370.931 267.791 370.931 267.791C370.931 267.791 368.791 268.449 369.449 273.05C370.108 277.651 367.309 283.732 368.462 284.06C369.614 284.389 380.317 286.197 380.317 284.882C380.317 283.567 379.329 278.473 380.152 275.351C380.976 272.228 379 261.382 377.518 262.204Z" fill="#3F3D56"/>
<path d="M375.048 263.026C375.048 263.026 373.072 265.984 373.237 268.284C373.401 270.585 373.401 272.064 373.401 272.064C373.401 272.064 370.108 287.84 370.767 287.84C371.425 287.84 373.401 288.662 373.566 288.169C373.731 287.676 377.847 277.651 377.847 277.651C377.847 277.651 378.835 267.627 377.682 265.326C376.53 263.026 375.048 263.026 375.048 263.026Z" fill="#3F3D56"/>
<path d="M371.096 287.347C371.096 287.347 369.449 292.935 371.755 293.099C374.06 293.263 372.743 287.676 372.743 287.676L371.096 287.347Z" fill="#A0616A"/>
<path d="M375.478 313.265C375.478 313.265 374.902 312.833 374.613 313.121C374.325 313.409 373.316 319.021 373.171 319.165C373.027 319.309 368.701 321.468 369.711 321.611C370.72 321.755 374.613 321.899 375.19 321.611C375.767 321.324 377.353 318.589 377.353 318.589V321.036H377.641C377.641 321.036 377.93 318.445 378.651 317.726C379.372 317.006 378.074 314.56 378.074 314.56C378.074 314.56 378.362 312.977 378.218 312.977C378.074 312.977 375.478 313.265 375.478 313.265Z" fill="#6C63FF"/>
<path d="M371.198 255.341C371.308 255.207 371.452 255.106 371.615 255.047C371.767 255.019 371.924 255.033 372.069 255.086C373.101 255.387 373.997 256.036 374.602 256.924C374.719 257.15 374.895 257.341 375.112 257.475C375.253 257.517 375.391 257.57 375.525 257.632C375.91 257.886 375.68 258.475 375.459 258.879C374.892 259.918 374.63 261.096 374.704 262.277C374.699 262.482 374.76 262.684 374.877 262.853C375.063 263.025 375.307 263.122 375.561 263.125C376.36 263.225 377.166 263.268 377.971 263.254C378.759 263.24 379.633 263.128 380.144 262.529C380.693 261.885 380.607 260.898 380.25 260.131C379.893 259.364 379.312 258.723 378.9 257.984C378.508 257.204 378.2 256.384 377.978 255.54C377.693 254.462 377.233 253.439 376.617 252.509C376.306 252.046 375.903 251.652 375.432 251.351C374.962 251.05 374.435 250.849 373.883 250.76C372.387 250.593 371.008 251.513 369.806 252.416C368.456 253.431 367.019 254.686 366.911 256.369C366.823 257.733 367.643 258.967 368.072 260.265C368.734 262.268 368.456 264.444 368.172 266.535C369.391 265.806 370.771 264.794 370.691 263.378C370.637 262.422 369.914 261.66 369.465 260.814C368.229 258.49 369.638 256.932 371.198 255.341Z" fill="#2F2E41"/>
<path d="M42.0464 272.138C43.0928 270.315 43.6335 268.246 43.6128 266.146C43.6128 260.731 40.2528 256.341 36.1081 256.341C31.9635 256.341 28.6035 260.731 28.6035 266.146C28.5828 268.246 29.1235 270.315 30.1699 272.138C29.1428 273.968 28.6035 276.031 28.6035 278.13C28.6035 280.228 29.1428 282.291 30.1699 284.121C29.1428 285.952 28.6035 288.015 28.6035 290.113C28.6035 292.211 29.1428 294.275 30.1699 296.105C29.1428 297.936 28.6035 299.999 28.6035 302.097C28.6035 304.195 29.1428 306.258 30.1699 308.089C29.1235 309.912 28.5828 311.98 28.6035 314.081C28.6035 319.496 31.9634 323.886 36.1081 323.886C40.2528 323.886 43.6128 319.496 43.6128 314.081C43.6335 311.98 43.0928 309.912 42.0464 308.089C43.0735 306.258 43.6128 304.195 43.6128 302.097C43.6128 299.999 43.0735 297.936 42.0464 296.105C43.0735 294.275 43.6128 292.211 43.6128 290.113C43.6128 288.015 43.0735 285.952 42.0464 284.121C43.0735 282.291 43.6128 280.228 43.6128 278.13C43.6128 276.031 43.0735 273.968 42.0464 272.138V272.138Z" fill="#3F3D56"/>
<path d="M36.1081 263.967C40.2528 263.967 43.6128 259.577 43.6128 254.162C43.6128 248.747 40.2528 244.357 36.1081 244.357C31.9634 244.357 28.6035 248.747 28.6035 254.162C28.6035 259.577 31.9634 263.967 36.1081 263.967Z" fill="#3F3D56"/>
<path d="M36.1081 251.983C40.2528 251.983 43.6128 247.593 43.6128 242.178C43.6128 236.763 40.2528 232.373 36.1081 232.373C31.9634 232.373 28.6035 236.763 28.6035 242.178C28.6035 247.593 31.9634 251.983 36.1081 251.983Z" fill="#3F3D56"/>
<path d="M64.2017 160.169C65.227 158.866 66.1608 157.495 66.9965 156.063L47.2775 152.831L68.6042 152.989C70.65 148.547 71.7661 143.734 71.8842 138.846C72.0022 133.959 71.1197 129.098 69.2906 124.562L40.6784 139.376L67.0655 120.017C64.5934 115.754 61.2681 112.044 57.2968 109.119C53.3254 106.194 48.7931 104.117 43.9822 103.016C39.1713 101.915 34.1849 101.815 29.3335 102.722C24.4821 103.628 19.8698 105.522 15.7838 108.286C11.6978 111.049 8.22569 114.622 5.58376 118.783C2.94182 122.944 1.18668 127.603 0.427645 132.47C-0.331387 137.338 -0.0780415 142.309 1.1719 147.074C2.42185 151.84 4.64161 156.297 7.69292 160.169C6.09477 162.197 4.72028 164.39 3.59325 166.712L29.19 179.984L1.89672 170.842C-0.0196731 176.496 -0.493276 182.537 0.51877 188.42C1.53082 194.303 3.99657 199.841 7.69291 204.533C3.52227 209.825 0.927832 216.181 0.206236 222.875C-0.51536 229.569 0.665003 236.331 3.61237 242.387C6.55975 248.443 11.1552 253.55 16.8732 257.122C22.5913 260.695 29.2012 262.589 35.9473 262.589C42.6934 262.589 49.3033 260.695 55.0214 257.122C60.7394 253.55 65.3349 248.443 68.2822 242.387C71.2296 236.331 72.41 229.569 71.6884 222.875C70.9668 216.181 68.3723 209.825 64.2017 204.533C69.1853 198.209 71.8946 190.396 71.8946 182.351C71.8946 174.305 69.1853 166.493 64.2017 160.169L64.2017 160.169Z" fill="#F2F2F2"/>
<path d="M4.28622e-06 182.351C-0.0124074 190.399 2.69831 198.215 7.69291 204.533C3.52226 209.825 0.927831 216.181 0.206234 222.875C-0.515362 229.569 0.665001 236.331 3.61237 242.387C6.55974 248.443 11.1552 253.55 16.8732 257.122C22.5913 260.695 29.2012 262.589 35.9473 262.589C42.6934 262.589 49.3033 260.695 55.0214 257.122C60.7394 253.55 65.3349 248.443 68.2822 242.387C71.2296 236.331 72.41 229.569 71.6884 222.875C70.9668 216.181 68.3723 209.825 64.2017 204.533C69.0197 198.428 4.28622e-06 178.324 4.28622e-06 182.351Z" fill="#F2F2F2"/>
<path d="M64.2017 160.169C65.227 158.866 66.1608 157.495 66.9965 156.063L47.2775 152.831L68.6042 152.989C70.65 148.547 71.7661 143.734 71.8842 138.846C72.0022 133.959 71.1197 129.098 69.2906 124.562L40.6784 139.376L67.0655 120.017C64.5934 115.754 61.2681 112.044 57.2968 109.119C53.3254 106.194 48.7931 104.117 43.9822 103.016C39.1713 101.915 34.1849 101.815 29.3335 102.722C24.4821 103.628 19.8698 105.522 15.7838 108.286C11.6978 111.049 8.22569 114.622 5.58376 118.783C2.94182 122.944 1.18668 127.603 0.427645 132.47C-0.331387 137.338 -0.0780415 142.309 1.1719 147.074C2.42185 151.84 4.64161 156.297 7.69292 160.169C6.09477 162.197 4.72028 164.39 3.59325 166.712L29.19 179.984L1.89672 170.842C-0.0196731 176.496 -0.493276 182.537 0.51877 188.42C1.53082 194.303 3.99657 199.841 7.69291 204.533C3.52227 209.825 0.927832 216.181 0.206236 222.875C-0.51536 229.569 0.665003 236.331 3.61237 242.387C6.55975 248.443 11.1552 253.55 16.8732 257.122C22.5913 260.695 29.2012 262.589 35.9473 262.589C42.6934 262.589 49.3033 260.695 55.0214 257.122C60.7394 253.55 65.3349 248.443 68.2822 242.387C71.2296 236.331 72.41 229.569 71.6884 222.875C70.9668 216.181 68.3723 209.825 64.2017 204.533C69.1853 198.209 71.8946 190.396 71.8946 182.351C71.8946 174.305 69.1853 166.493 64.2017 160.169L64.2017 160.169Z" fill="#57B894"/>
<path opacity="0.1" d="M4.28622e-06 182.351C-0.0124074 190.399 2.69831 198.215 7.69291 204.533C3.52226 209.825 0.927831 216.181 0.206234 222.875C-0.515362 229.569 0.665001 236.331 3.61237 242.387C6.55974 248.443 11.1552 253.55 16.8732 257.122C22.5913 260.695 29.2012 262.589 35.9473 262.589C42.6934 262.589 49.3033 260.695 55.0214 257.122C60.7394 253.55 65.3349 248.443 68.2822 242.387C71.2296 236.331 72.41 229.569 71.6884 222.875C70.9668 216.181 68.3723 209.825 64.2017 204.533C69.0197 198.428 4.28622e-06 178.324 4.28622e-06 182.351Z" fill="black"/>
<path d="M259.058 158.201L241.221 176.002L232.77 167.568L229.48 170.852L241.21 182.559L262.348 161.484L259.058 158.201Z" fill="#57B894"/>
<path d="M315.836 117.597L298 135.399L289.549 126.965L286.259 130.248L297.989 141.955L319.127 120.881L315.836 117.597Z" fill="#57B894"/>
<path d="M440.556 259.675C441.603 257.404 442.144 254.828 442.123 252.212C442.123 245.467 438.763 240 434.618 240C430.474 240 427.114 245.467 427.114 252.212C427.093 254.828 427.634 257.404 428.68 259.675C427.653 261.955 427.114 264.525 427.114 267.138C427.114 269.751 427.653 272.321 428.68 274.601C427.653 276.881 427.114 279.45 427.114 282.064C427.114 284.677 427.653 287.246 428.68 289.526C427.653 291.807 427.114 294.376 427.114 296.989C427.114 299.603 427.653 302.172 428.68 304.452C427.634 306.723 427.093 309.299 427.114 311.915C427.114 318.66 430.474 324.127 434.618 324.127C438.763 324.127 442.123 318.66 442.123 311.915C442.144 309.299 441.603 306.723 440.556 304.452C441.584 302.172 442.123 299.603 442.123 296.989C442.123 294.376 441.584 291.807 440.556 289.526C441.584 287.246 442.123 284.677 442.123 282.064C442.123 279.45 441.584 276.881 440.556 274.601C441.584 272.321 442.123 269.751 442.123 267.138C442.123 264.525 441.584 261.955 440.556 259.675V259.675Z" fill="#3F3D56"/>
</g>
<path d="M462.307 134.314C463.332 132.691 464.266 130.983 465.102 129.2L445.383 125.174L466.71 125.371C468.755 119.838 469.871 113.844 469.989 107.757C470.108 101.669 469.225 95.6149 467.396 89.9657L438.784 108.416L465.171 84.305C462.699 78.9947 459.373 74.3742 455.402 70.7311C451.431 67.088 446.898 64.5005 442.088 63.1297C437.277 61.7589 432.29 61.6342 427.439 62.7634C422.587 63.8925 417.975 66.2514 413.889 69.693C409.803 73.1346 406.331 77.5852 403.689 82.7675C401.047 87.9499 399.292 93.7529 398.533 99.8152C397.774 105.878 398.027 112.069 399.277 118.004C400.527 123.94 402.747 129.491 405.798 134.314C404.2 136.839 402.826 139.571 401.699 142.463L427.295 158.993L400.002 147.607C398.086 154.649 397.612 162.173 398.624 169.5C399.636 176.827 402.102 183.724 405.798 189.568C401.628 196.16 399.033 204.076 398.312 212.414C397.59 220.752 398.77 229.173 401.718 236.716C404.665 244.259 409.261 250.619 414.979 255.069C420.697 259.518 427.307 261.878 434.053 261.878C440.799 261.878 447.409 259.518 453.127 255.069C458.845 250.619 463.44 244.259 466.388 236.716C469.335 229.173 470.515 220.752 469.794 212.414C469.072 204.076 466.478 196.16 462.307 189.568C467.291 181.692 470 171.962 470 161.941C470 151.92 467.291 142.19 462.307 134.314V134.314Z" fill="#57B894"/>
<path opacity="0.1" d="M398.105 161.658C398.093 171.682 400.804 181.417 405.798 189.286C401.628 195.877 399.033 203.794 398.312 212.131C397.59 220.469 398.77 228.891 401.718 236.434C404.665 243.977 409.261 250.336 414.979 254.786C420.697 259.235 427.307 261.595 434.053 261.595C440.799 261.595 447.409 259.235 453.127 254.786C458.845 250.336 463.44 243.977 466.388 236.434C469.335 228.891 470.515 220.469 469.794 212.131C469.072 203.794 466.478 195.877 462.307 189.286C467.125 181.683 398.105 156.643 398.105 161.658Z" fill="black"/>
<defs>
<clipPath id="clip0_371_12">
<rect width="450.119" height="340" fill="white"/>
</clipPath>
</defs>
</svg>
