<svg width="102" height="53" viewBox="0 0 102 53" fill="none" xmlns="http://www.w3.org/2000/svg">
<path d="M11.6518 47.7488C11.4579 47.6997 11.2718 47.6361 11.0935 47.558C10.3707 47.2512 9.80355 46.8023 9.39203 46.2112C8.97854 45.6279 8.74087 44.9694 8.67902 44.2358C7.87345 44.3537 7.04799 44.3057 6.20266 44.0917C4.8067 43.7383 3.76292 43.0532 3.07131 42.0363C2.37971 41.0195 2.19098 39.8907 2.50511 38.6498C2.71519 37.82 3.10334 37.1343 3.66958 36.5927C4.24357 36.053 4.94312 35.702 5.76822 35.5395C6.5953 35.3693 7.48191 35.4039 8.42806 35.6435C9.04849 35.8005 9.63382 36.0147 10.1841 36.2861C10.7363 36.5496 11.1682 36.8158 11.4797 37.0845L10.9965 39.0912L10.9034 39.0677C10.8959 38.3148 10.6698 37.6923 10.225 37.2001C9.78991 36.7021 9.20011 36.3588 8.4556 36.1703C7.54047 35.9387 6.70274 36.1021 5.94243 36.6605C5.19183 37.2132 4.67616 38.0441 4.3954 39.1531C4.11661 40.2544 4.17291 41.2218 4.56431 42.0553C4.95572 42.8889 5.59735 43.4185 6.48921 43.6443C6.97005 43.766 7.41146 43.7664 7.81346 43.6453C8.22322 43.5263 8.53431 43.3079 8.74675 42.9904L9.19439 41.2221C9.23758 41.0515 9.22055 40.9069 9.14329 40.7883C9.06603 40.6697 8.93434 40.5869 8.74821 40.5398L8.56208 40.4927L8.59153 40.3763L11.8604 41.2039L11.831 41.3202L11.6565 41.276C11.4626 41.2269 11.3034 41.2362 11.1791 41.3037C11.0547 41.3712 10.9758 41.4874 10.9423 41.6523L10.474 43.5019C10.3522 44.0157 10.3284 44.5172 10.4026 45.0064C10.5741 46.0566 11.1074 46.8188 12.0024 47.2929C12.2426 47.4198 12.4984 47.5175 12.7699 47.5863C13.0491 47.6569 13.34 47.6976 13.6426 47.7082L13.6365 47.8304C12.9027 47.9252 12.2412 47.898 11.6518 47.7488Z" fill="#FFCB47"/>
<path d="M15.645 41.1604L15.3082 41.0906C15.2978 41.0884 15.2899 41.0868 15.2847 41.0857L14.3378 45.6526C14.3029 45.8469 14.3567 46.0078 14.4991 46.1354C14.5688 46.1934 14.648 46.2316 14.7368 46.25L14.8386 46.2711L14.8224 46.3495L12.441 45.8557L12.4573 45.7774L12.5591 45.7985C12.7471 45.8375 12.9075 45.7863 13.0403 45.645C13.0972 45.5805 13.1375 45.5044 13.1612 45.4168L14.0626 41.0692C14.0855 40.9324 14.0571 40.8066 13.9774 40.6921C13.904 40.5734 13.7994 40.4999 13.6636 40.4718L13.5618 40.4507L13.578 40.3723L16.2649 40.9294C16.7714 41.0345 17.1769 41.2329 17.4813 41.5248C17.6361 41.6713 17.7452 41.8546 17.8085 42.0747C17.8729 42.2896 17.8791 42.5223 17.8271 42.773C17.7762 43.0185 17.6847 43.2364 17.5526 43.4269C17.4257 43.6185 17.2442 43.7715 17.0081 43.8859C16.7772 44.0014 16.5174 44.0456 16.2289 44.0185C16.5113 44.1805 16.7299 44.4655 16.885 44.8735C17.2617 45.8939 17.5679 46.5184 17.8038 46.747C17.9222 46.8588 18.0827 46.9383 18.2853 46.9858L18.2691 47.0641L17.5014 46.9049C17.0575 46.8129 16.6992 46.676 16.4264 46.4941C16.1547 46.3071 15.9558 46.0452 15.8295 45.7086C15.7669 45.5376 15.6939 45.2856 15.6105 44.9524C15.5281 44.6139 15.477 44.3746 15.4571 44.2343C15.381 43.8917 15.2397 43.6799 15.0332 43.599L15.0494 43.5206L15.2923 43.571C15.5273 43.6197 15.7482 43.592 15.955 43.4878C16.167 43.3847 16.3374 43.1804 16.4661 42.8748C16.5097 42.7695 16.538 42.6855 16.551 42.6228C16.6398 42.1946 16.6175 41.8686 16.4842 41.6449C16.3519 41.4159 16.1505 41.2707 15.8801 41.2091C15.8278 41.1983 15.7495 41.1821 15.645 41.1604Z" fill="#FFCB47"/>
<path d="M25.2486 48.1285L25.3196 48.1403L25.3066 48.2192L22.7888 47.8029L22.8018 47.724L22.8729 47.7357C22.9886 47.7549 23.0785 47.7346 23.1424 47.6749C23.2125 47.6108 23.2527 47.5472 23.2631 47.484C23.2736 47.4209 23.2709 47.3556 23.255 47.2881L23.0288 46.2533L21.1818 45.948L20.6109 46.8509C20.5733 46.915 20.5492 46.9786 20.5388 47.0417C20.5292 47.0996 20.5447 47.1697 20.5851 47.2521C20.6317 47.3301 20.7155 47.3791 20.8365 47.3991L20.8996 47.4095L20.8866 47.4884L19.1975 47.2092L19.2106 47.1303L19.2816 47.142C19.4026 47.162 19.5297 47.1452 19.663 47.0915C19.7962 47.0379 19.9144 46.9439 20.0177 46.8096L22.5234 42.9831C22.8569 42.5031 23.0454 42.1801 23.089 42.0144L23.16 42.0261L24.6534 47.5598C24.7071 47.7255 24.7879 47.8578 24.8959 47.9567C25.0048 48.0504 25.1223 48.1077 25.2486 48.1285ZM21.3708 45.6386L22.9494 45.8996L22.5048 43.8314L21.3708 45.6386Z" fill="#FFCB47"/>
<path d="M33.9427 43.7209C33.8104 43.7049 33.6908 43.7388 33.5839 43.8226C33.4778 43.901 33.414 44.0061 33.3927 44.1379L32.8971 48.236C32.8542 48.5908 32.8418 48.8928 32.86 49.1421L32.8695 49.2641L32.798 49.2555L29.2492 44.9503L28.8679 48.1033C28.8519 48.2357 28.8858 48.3553 28.9695 48.4621C29.054 48.5636 29.1624 48.6224 29.2947 48.6384L29.4456 48.6567L29.436 48.7361L27.0296 48.4451L27.0392 48.3656L27.1821 48.3829C27.3198 48.3996 27.4417 48.3687 27.5479 48.2902C27.6547 48.2064 27.7165 48.0957 27.7331 47.958L28.2316 43.836C28.2739 43.4866 28.2853 43.1925 28.2658 42.9538L28.2643 42.8327L28.3358 42.8414L31.8846 47.1466L32.264 44.0094C32.2753 43.8711 32.2388 43.7512 32.1544 43.6497C32.0706 43.5428 31.9625 43.4814 31.8301 43.4654L31.6872 43.4481L31.6968 43.3687L34.1033 43.6597L34.0936 43.7391L33.9427 43.7209Z" fill="#FFCB47"/>
<path d="M38.9365 44.366L38.5692 49.0476C38.5637 49.1862 38.605 49.3072 38.6932 49.4104C38.7867 49.514 38.9026 49.5713 39.0408 49.5821L39.1365 49.5896L39.1383 49.67L36.7137 49.4798L36.72 49.4L36.8237 49.4081C36.9566 49.4186 37.0747 49.3797 37.1779 49.2915C37.2864 49.2037 37.3512 49.0938 37.3723 48.9617L37.7402 44.2721L36.6635 44.1876C36.4185 44.1737 36.2184 44.2356 36.0632 44.3732C35.9079 44.5108 35.8209 44.6993 35.8021 44.9385L35.7946 45.0342L35.7149 45.028L35.8238 43.6403C35.8957 43.678 36.0261 43.7203 36.215 43.7672C36.4092 43.8146 36.5888 43.8447 36.7536 43.8577L39.9677 44.1098C40.2287 44.125 40.443 44.1204 40.6108 44.0961C40.7785 44.0718 40.8816 44.0531 40.9201 44.0401L40.8112 45.4278L40.7315 45.4216L40.739 45.3259C40.7577 45.0866 40.7012 44.8869 40.5693 44.7268C40.4374 44.5666 40.2494 44.4743 40.0052 44.4498L38.9365 44.366Z" fill="#FFCB47"/>
<path d="M51.8236 51.5024C50.935 51.9079 50.0489 51.9452 49.1651 51.6144C48.2258 51.2734 47.4318 50.5938 46.7831 49.5756C46.4361 49.0336 46.1443 48.4097 45.9077 47.7039L45.5639 46.6697L42.7341 46.5588L42.0394 48.0448C41.9954 48.1471 41.9721 48.2303 41.9696 48.2942C41.9671 48.3582 41.9763 48.4306 41.9971 48.5115C42.0263 48.5847 42.0836 48.655 42.169 48.7223C42.2627 48.7821 42.3655 48.8141 42.4775 48.8185L42.5734 48.8223L42.5687 48.9422L40.0026 48.8416L40.0073 48.7217L40.1153 48.726C40.2991 48.7332 40.481 48.6883 40.661 48.5912C40.8492 48.4865 41.0075 48.3286 41.1359 48.1174L44.0489 42.1189C43.7647 41.4032 43.4519 40.9066 43.1105 40.629C42.8235 40.3936 42.5441 40.2706 42.2723 40.2599C42.0085 40.2496 41.7591 40.2798 41.5242 40.3507L41.5049 40.2298C42.092 39.9566 42.6494 39.8303 43.177 39.851C43.8325 39.8767 44.41 40.1555 44.9096 40.6875C45.4014 41.2111 45.8246 41.9562 46.179 42.9229L47.7496 47.2837C48.3415 48.9321 48.9693 50.0735 49.633 50.708C49.9031 50.9668 50.1841 51.1499 50.4761 51.2574C50.7681 51.3649 51.0141 51.4226 51.2139 51.4304C51.4218 51.4386 51.6225 51.4224 51.8163 51.382L51.8236 51.5024ZM42.9581 46.0512L45.4043 46.147L44.6518 43.8958C44.6162 43.7823 44.5662 43.6283 44.5018 43.4336C44.4377 43.2309 44.3952 43.0892 44.3743 43.0083L42.9581 46.0512Z" fill="#FFCB47"/>
<path d="M55.6919 44.5691L55.6199 44.5692C55.4972 44.5694 55.3746 44.6069 55.252 44.6818C55.1295 44.7566 55.0283 44.8687 54.9485 45.0182L53.0586 49.2049C52.814 49.7333 52.6838 50.0828 52.6681 50.2535L52.5961 50.2536L50.1645 45.0331C50.0843 44.8839 49.9828 44.7721 49.86 44.6976C49.7373 44.6178 49.6119 44.5779 49.4839 44.5781L49.4199 44.5782L49.4197 44.4982L51.9637 44.4945L51.9639 44.5745L51.8999 44.5746C51.7825 44.5748 51.6946 44.6122 51.636 44.687C51.5828 44.7564 51.5562 44.8231 51.5563 44.8871C51.5564 44.9511 51.5672 45.0151 51.5886 45.0791L52.9534 48.3811L54.3566 45.0751C54.3832 45.0057 54.3964 44.9417 54.3963 44.883C54.3962 44.819 54.3668 44.7524 54.308 44.6831C54.2546 44.6085 54.1692 44.5713 54.0519 44.5715L53.9799 44.5716L53.9797 44.4916L55.6917 44.4891L55.6919 44.5691Z" fill="#FFCB47"/>
<path d="M63.5452 47.1473L63.4254 47.1526C63.2975 47.1584 63.2004 47.1948 63.134 47.2618C63.0673 47.3236 63.0367 47.413 63.0419 47.5303L63.1012 48.8489C62.9057 49.13 62.5728 49.3852 62.1026 49.6146C61.6325 49.8439 61.099 49.972 60.5023 49.9989C59.5912 50.0398 58.8469 49.8117 58.2693 49.3145C57.6968 48.8117 57.3905 48.1155 57.3505 47.2257C57.3102 46.3306 57.5528 45.6096 58.078 45.0628C58.6087 44.5158 59.3455 44.221 60.2885 44.1786C60.7148 44.1594 61.1296 44.1835 61.533 44.2507C61.9362 44.3127 62.2631 44.3994 62.5137 44.5109L62.5915 45.8848L62.5196 45.8881C62.3578 45.3775 62.104 45.0152 61.758 44.8012C61.4118 44.5819 61.0069 44.4826 60.5434 44.5035C59.8987 44.5325 59.4136 44.7865 59.0882 45.2656C58.7625 45.7394 58.6177 46.3786 58.6539 47.1831C58.6898 47.9823 58.8752 48.6012 59.2099 49.04C59.5499 49.4785 60.0103 49.6847 60.5911 49.6585C61.012 49.6396 61.3583 49.5039 61.6298 49.2514C61.7629 49.1227 61.8576 48.9743 61.9141 48.8062L61.8591 47.5835C61.8539 47.4662 61.8126 47.38 61.7354 47.3248C61.6632 47.2639 61.5606 47.2365 61.4274 47.2425L61.2995 47.2483L61.2959 47.1683L63.5416 47.0673L63.5452 47.1473Z" fill="#FFCB47"/>
<path d="M71.434 43.5234L71.2985 43.5356C71.187 43.5457 71.0921 43.5917 71.0138 43.6738C70.9403 43.75 70.9084 43.8412 70.918 43.9475L71.1981 47.0549C71.257 47.7082 71.0992 48.2446 70.7246 48.6639C70.3501 49.0832 69.8069 49.3249 69.0952 49.3891C68.2559 49.4648 67.5964 49.3368 67.1167 49.0052C66.6365 48.6683 66.3665 48.1678 66.3067 47.5038L66.028 44.4124C66.0174 44.2955 65.9663 44.2037 65.8746 44.137C65.7883 44.0698 65.6866 44.0415 65.5698 44.052L65.4423 44.0635L65.4351 43.9839L67.7298 43.777L67.737 43.8567L67.6095 43.8682C67.4926 43.8787 67.3977 43.9248 67.3248 44.0063C67.2513 44.0825 67.217 44.1767 67.2217 44.2887L67.4961 47.3324C67.5468 47.8954 67.7251 48.3291 68.031 48.6336C68.3369 48.938 68.7316 49.0684 69.215 49.0249C69.6983 48.9813 70.0669 48.7928 70.3206 48.4593C70.5739 48.1205 70.6793 47.6853 70.6367 47.1537L70.353 44.0064C70.3429 43.8949 70.2923 43.8084 70.2011 43.747C70.1147 43.6798 70.0131 43.6515 69.8962 43.662L69.7688 43.6735L69.7616 43.5939L71.4268 43.4438L71.434 43.5234Z" fill="#FFCB47"/>
<path d="M73.888 48.0133C73.8385 47.6325 73.8783 47.2966 74.0073 47.0056L74.0787 46.9963C74.0789 47.0393 74.0817 47.082 74.0872 47.1243C74.1346 47.4892 74.3057 47.7924 74.6005 48.0338C74.9 48.2692 75.2771 48.3574 75.732 48.2984C76.0863 48.2524 76.3504 48.1321 76.5241 47.9374C76.7031 47.7421 76.7758 47.5149 76.7422 47.2557C76.7017 46.9437 76.4548 46.6987 76.0015 46.5209L74.5027 45.7877C74.207 45.6647 73.984 45.5001 73.8335 45.2937C73.6876 45.0814 73.5996 44.8589 73.5694 44.6262C73.5049 44.129 73.6112 43.7253 73.8882 43.4151C74.1705 43.1041 74.5576 42.9168 75.0495 42.8529C75.3404 42.8152 75.7035 42.795 76.1388 42.7923L76.6386 42.7274L76.6868 43.907L76.6074 43.9173C76.5718 43.6423 76.4401 43.4362 76.2126 43.299C75.9896 43.1558 75.7089 43.1062 75.3704 43.1501C74.9579 43.2036 74.6755 43.3694 74.5234 43.6472C74.4439 43.7813 74.4142 43.9249 74.4341 44.0783C74.467 44.3322 74.6827 44.5435 75.0811 44.7123L76.724 45.4994C77.2357 45.7127 77.5262 46.0864 77.5956 46.6206C77.669 47.1865 77.5322 47.6453 77.1853 47.9969C76.8429 48.3425 76.3544 48.5564 75.7197 48.6388C75.36 48.6855 75.0213 48.6864 74.7036 48.6416C74.3905 48.5908 74.1529 48.5006 73.9909 48.3711C73.9408 48.2754 73.9065 48.1561 73.888 48.0133Z" fill="#FFCB47"/>
<path d="M82.2909 42.1961L83.0636 46.8281C83.0917 46.964 83.161 47.0714 83.2715 47.1503C83.3872 47.2283 83.5135 47.2559 83.6503 47.2331L83.745 47.2173L83.766 47.2949L81.3672 47.6951L81.354 47.6162L81.4566 47.599C81.5881 47.5771 81.6933 47.5109 81.7722 47.4004C81.8564 47.289 81.8927 47.1667 81.8813 47.0335L81.1073 42.3936L80.042 42.5713C79.8009 42.6169 79.6216 42.7252 79.5041 42.8962C79.3867 43.0672 79.3477 43.2711 79.3872 43.5078L79.403 43.6025L79.3241 43.6157L79.095 42.2426C79.1739 42.2619 79.3107 42.2715 79.5053 42.2715C79.7053 42.2706 79.8867 42.2565 80.0498 42.2293L83.2299 41.6988C83.4868 41.6506 83.6937 41.5944 83.8506 41.5304C84.0076 41.4664 84.1031 41.4234 84.1373 41.4015L84.3664 42.7745L84.2875 42.7876L84.2717 42.693C84.2322 42.4562 84.1291 42.2761 83.9625 42.1525C83.7959 42.0289 83.5912 41.9846 83.3483 42.0197L82.2909 42.1961Z" fill="#FFCB47"/>
<path d="M89.041 40.4379C90.0065 40.2348 90.8275 40.3291 91.504 40.7209C92.1805 41.1127 92.611 41.747 92.7954 42.6238C92.9799 43.5006 92.8415 44.2546 92.3802 44.8858C91.9189 45.5169 91.2055 45.934 90.24 46.1372C89.2744 46.3403 88.4534 46.246 87.7769 45.8542C87.1005 45.4624 86.67 44.8281 86.4855 43.9513C86.3637 43.3719 86.3856 42.8414 86.5513 42.3596C86.7211 41.8716 87.0193 41.4627 87.446 41.1332C87.8726 40.8036 88.4043 40.5719 89.041 40.4379ZM88.6591 45.4233C89.0928 45.8008 89.5967 45.9291 90.1708 45.8084C90.7449 45.6876 91.1517 45.3676 91.3913 44.8485C91.6351 44.3231 91.6751 43.6716 91.5115 42.8939C91.4039 42.3825 91.2344 41.9521 91.0029 41.603C90.7714 41.2538 90.4933 41.0071 90.1686 40.8629C89.844 40.7186 89.4912 40.6866 89.1102 40.7667C88.5361 40.8875 88.1272 41.2106 87.8834 41.736C87.6438 42.2551 87.6058 42.9035 87.7694 43.6812C87.933 44.4588 88.2296 45.0395 88.6591 45.4233Z" fill="#FFCB47"/>
<path d="M99.5982 38.0771L99.5285 38.095C99.4096 38.1254 99.3001 38.192 99.1998 38.2948C99.0995 38.3976 99.0291 38.5312 98.9887 38.6958L98.1906 43.2194C98.084 43.7918 98.0442 44.1626 98.071 44.3319L98.0013 44.3498L94.3564 39.891C94.2419 39.7662 94.1159 39.6829 93.9785 39.641C93.8398 39.594 93.7085 39.5863 93.5845 39.6181L93.5225 39.634L93.5027 39.5565L95.967 38.925L95.9869 39.0025L95.9249 39.0184C95.8112 39.0475 95.7353 39.1055 95.697 39.1924C95.6625 39.2728 95.6532 39.344 95.6691 39.406C95.685 39.468 95.7112 39.5273 95.7478 39.584L97.8853 42.447L98.4291 38.897C98.4378 38.8232 98.4348 38.7579 98.4202 38.701C98.4043 38.639 98.3594 38.5817 98.2853 38.5291C98.2151 38.47 98.1232 38.4551 98.0095 38.4842L97.9398 38.5021L97.9199 38.4246L99.5784 37.9996L99.5982 38.0771Z" fill="#FFCB47"/>
<g clip-path="url(#clip0_195_491)">
<path d="M71.7406 37H30.6914C29.7146 36.9935 28.7797 36.6045 28.0889 35.9169C27.3981 35.2294 27.0069 34.2987 27 33.3262V10.3893C27.0065 9.41679 27.3973 8.48594 28.0878 7.79812C28.7783 7.1103 29.7131 6.72083 30.6898 6.71396H71.7406C72.7174 6.72042 73.6523 7.1095 74.3431 7.79703C75.0339 8.48456 75.4251 9.41525 75.432 10.3877V33.3293C75.432 33.8113 75.3366 34.2887 75.1514 34.734C74.9661 35.1794 74.6945 35.584 74.3522 35.9249C74.0098 36.2657 73.6034 36.5361 73.1561 36.7206C72.7088 36.9051 72.2294 37 71.7453 37H71.7406ZM30.6914 9.16521H30.6805C30.3573 9.16521 30.0474 9.29304 29.8188 9.52057C29.5903 9.74811 29.4619 10.0567 29.4619 10.3785V33.3416C29.4619 34.0122 30.007 34.5549 30.6805 34.5549H71.753C72.0762 34.5549 72.3862 34.4271 72.6147 34.1996C72.8432 33.972 72.9716 33.6634 72.9716 33.3416V10.3785C72.9716 10.0567 72.8432 9.74811 72.6147 9.52057C72.3862 9.29304 72.0762 9.16521 71.753 9.16521H71.7406H30.6914ZM62.0942 2.93996V2.94613C62.0942 3.2953 61.9549 3.63018 61.7069 3.87709C61.4589 4.124 61.1226 4.26271 60.7719 4.26271H41.6632C41.3125 4.26271 40.9762 4.124 40.7282 3.87709C40.4802 3.63018 40.3409 3.2953 40.3409 2.94613V2.93379C40.3409 2.20613 40.9339 1.61721 41.6632 1.61721H60.7657C61.1129 1.63228 61.4419 1.77627 61.6878 2.02081C61.9337 2.26536 62.0787 2.59272 62.0942 2.93842V2.9415V2.93996ZM66.7208 3.92046V3.94204C66.7208 5.03971 65.8274 5.92925 64.7249 5.92925H64.7017H64.7032H64.6815C64.4194 5.92925 64.1599 5.87785 63.9178 5.77798C63.6756 5.67812 63.4556 5.53174 63.2703 5.34721C63.0849 5.16268 62.9379 4.94361 62.8376 4.70251C62.7373 4.46141 62.6857 4.20301 62.6857 3.94204V3.91892V3.92046V1.98721C62.6857 0.889542 63.5791 0 64.6815 0H64.7048H64.7032H64.7249C65.8274 0 66.7208 0.889542 66.7208 1.98721V2.01033V2.00879V3.92046ZM39.7479 3.92046V3.94204C39.7479 5.03971 38.8545 5.92925 37.752 5.92925H37.7288H37.7303H37.7086C37.1793 5.92925 36.6716 5.71988 36.2974 5.34721C35.9231 4.97454 35.7128 4.46908 35.7128 3.94204V3.91892V3.92046V1.98721C35.7128 0.889542 36.6062 0 37.7086 0H37.7319H37.7303H37.752C38.8545 0 39.7479 0.889542 39.7479 1.98721V2.01033V2.00879V3.92046ZM73.1698 2.93996V2.94613C73.1698 3.2953 73.0305 3.63018 72.7825 3.87709C72.5345 4.124 72.1982 4.26271 71.8475 4.26271H68.5386C68.1879 4.26271 67.8515 4.124 67.6036 3.87709C67.3556 3.63018 67.2163 3.2953 67.2163 2.94613V2.93379C67.2163 2.20613 67.8093 1.61721 68.5386 1.61721H71.8413C72.1885 1.63228 72.5175 1.77627 72.7634 2.02081C73.0093 2.26536 73.1543 2.59272 73.1698 2.93842V2.9415V2.93996ZM35.1708 2.93996V2.94613C35.1708 3.2953 35.0315 3.63018 34.7835 3.87709C34.5356 4.124 34.1992 4.26271 33.8485 4.26271H30.5876C30.2369 4.26271 29.9006 4.124 29.6526 3.87709C29.4046 3.63018 29.2653 3.2953 29.2653 2.94613V2.93379C29.2653 2.20613 29.8583 1.61721 30.5876 1.61721H33.8903C34.2326 1.63407 34.5555 1.78032 34.7932 2.02613C35.0309 2.27194 35.1654 2.59878 35.1693 2.93996H35.1708Z" fill="white"/>
<path d="M35.7608 22.4436V25.527H38.7631V22.4436H40.584V30.4819H38.7631V27.0995H35.7608V30.4819H33.9399V22.4436H35.7608ZM49.5925 26.3672C49.6487 26.9058 49.5906 27.4501 49.422 27.9649C49.2535 28.4797 48.9782 28.9536 48.614 29.3557C48.2498 29.7579 47.8048 30.0793 47.3079 30.2994C46.811 30.5194 46.2731 30.6331 45.7293 30.633L45.5977 30.6314H45.6039H45.559C45.032 30.6316 44.5108 30.5216 44.0292 30.3085C43.5476 30.0954 43.1163 29.7839 42.7634 29.3942C42.4104 29.0045 42.1436 28.5454 41.9802 28.0465C41.8168 27.5476 41.7605 27.0201 41.815 26.4982L41.8134 26.5136C41.768 25.9772 41.8349 25.4372 42.0099 24.9279C42.1849 24.4185 42.4642 23.9509 42.8301 23.5545C43.196 23.1582 43.6405 22.8418 44.1356 22.6254C44.6306 22.4089 45.1654 22.2972 45.7061 22.2972H45.7541H45.751L45.8454 22.2956C46.3681 22.2956 46.885 22.4041 47.3631 22.6142C47.8413 22.8243 48.2702 23.1314 48.6224 23.5159C48.9746 23.9003 49.2423 24.3537 49.4086 24.8471C49.5748 25.3404 49.6359 25.8629 49.5879 26.381L49.5894 26.3672H49.5925ZM43.7845 26.4643C43.7845 28.0337 44.5278 29.1591 45.7525 29.1591C46.9773 29.1591 47.6725 27.9828 47.6725 26.415C47.6725 24.9442 46.9835 23.7201 45.7045 23.7201C44.4751 23.717 43.7845 24.8949 43.7845 26.4612V26.4643ZM52.0529 23.9637H49.8883V22.4436H56.0911V23.9637H53.8769V30.4819H52.056L52.0529 23.9637ZM61.848 27.0501H58.8952V28.9618H62.2398V30.4325H57.0248V22.4436H61.9951V23.9144H58.8457V25.5809H61.7985V27.0517L61.848 27.0501ZM63.4723 22.4436H65.2932V28.9618H68.4921V30.4819H63.4723V22.4436ZM51.2168 17.3006L48.5582 18.7267L49.0537 15.7867L46.9339 13.67L49.8867 13.2291L51.2152 10.5867L52.5438 13.2337L55.4965 13.6746L53.3799 15.7821L53.8754 18.722L51.2168 17.3006ZM60.4204 17.6413L58.4028 18.719L58.7961 16.465L57.1703 14.8972L59.3845 14.6043L60.4173 12.5461L61.4021 14.6043L63.6658 14.8972L62.0416 16.4666L62.3853 18.7205L60.4204 17.6413ZM66.2764 18.0345L64.9479 18.7205L65.1956 17.2498L64.1133 16.2215L65.5905 15.9748L66.2795 14.652L66.9205 15.9748L68.3977 16.2215L67.3649 17.2498L67.6127 18.7205L66.2764 18.0345ZM42.0612 17.6413L44.0292 18.719L43.6359 16.465L45.2601 14.8956L43.0459 14.6027L42.0627 12.5461L41.0299 14.6043L38.8142 14.8972L40.4385 16.4666L40.0452 18.7205L42.0612 17.6413ZM36.1556 18.0345L37.4841 18.7205L37.2364 17.2498L38.3187 16.2215L36.8416 15.9748L36.1541 14.652L35.513 15.9748L34.0359 16.2215L35.1182 17.2498L34.8705 18.7205L36.1556 18.0345Z" fill="white"/>
</g>
<defs>
<clipPath id="clip0_195_491">
<rect width="48" height="37" fill="white" transform="translate(27)"/>
</clipPath>
</defs>
</svg>
