<svg width="50" height="50" viewBox="0 0 50 50" fill="none" xmlns="http://www.w3.org/2000/svg">
<path opacity="0.2" d="M25 6.25C21.206 6.24889 17.501 7.39876 14.3743 9.54771C11.2476 11.6967 8.84637 14.7436 7.48782 18.286C6.12927 21.8284 5.87731 25.6995 6.76523 29.3881C7.65315 33.0767 9.63916 36.4092 12.4609 38.9453C13.6367 36.6299 15.4306 34.6854 17.6438 33.3271C19.8571 31.9688 22.4032 31.2499 25 31.25C23.4548 31.25 21.9444 30.7918 20.6596 29.9334C19.3748 29.0749 18.3735 27.8548 17.7822 26.4272C17.1909 24.9997 17.0362 23.4288 17.3376 21.9134C17.639 20.3979 18.3831 19.0058 19.4757 17.9132C20.5683 16.8206 21.9604 16.0766 23.4758 15.7751C24.9913 15.4737 26.5622 15.6284 27.9897 16.2197C29.4172 16.811 30.6374 17.8123 31.4958 19.0971C32.3543 20.3819 32.8125 21.8923 32.8125 23.4375C32.8125 25.5095 31.9894 27.4966 30.5243 28.9618C29.0591 30.4269 27.072 31.25 25 31.25C27.5968 31.2499 30.1429 31.9688 32.3561 33.3271C34.5694 34.6854 36.3633 36.6299 37.539 38.9453C40.3608 36.4092 42.3468 33.0767 43.2347 29.3881C44.1227 25.6995 43.8707 21.8284 42.5122 18.286C41.1536 14.7436 38.7524 11.6967 35.6257 9.54771C32.499 7.39876 28.794 6.24889 25 6.25Z" fill="white"/>
<path d="M45.3125 25.0001C45.3136 21.6212 44.4717 18.2955 42.8633 15.324C41.2548 12.3526 38.9304 9.82931 36.1008 7.98276C33.2711 6.13621 30.0255 5.02471 26.6579 4.74893C23.2903 4.47315 19.9071 5.04179 16.8147 6.40337C13.7223 7.76494 11.0185 9.87643 8.94795 12.5466C6.87746 15.2168 5.50576 18.3613 4.95709 21.6953C4.40842 25.0293 4.70012 28.4475 5.80577 31.6404C6.91141 34.8332 8.79608 37.6998 11.2891 39.9806L11.543 40.215C15.2564 43.4992 20.0426 45.3121 25 45.3121C29.9574 45.3121 34.7436 43.4992 38.457 40.215L38.7109 39.9806C40.7932 38.0805 42.4559 35.7666 43.5927 33.187C44.7294 30.6075 45.3152 27.819 45.3125 25.0001ZM7.8125 25.0001C7.81147 22.2164 8.4866 19.4741 9.77982 17.009C11.073 14.5439 12.9457 12.4298 15.2366 10.8485C17.5276 9.26726 20.1684 8.26609 22.9319 7.93114C25.6954 7.59618 28.4989 7.93747 31.1013 8.92564C33.7037 9.91381 36.0272 11.5193 37.8719 13.6041C39.7166 15.6888 41.0273 18.1904 41.6913 20.8938C42.3554 23.5971 42.3529 26.4213 41.684 29.1235C41.0151 31.8256 39.7 34.3249 37.8516 36.4064C36.1094 33.8798 33.6551 31.9286 30.8008 30.8009C32.3317 29.5951 33.4488 27.9423 33.9967 26.0722C34.5447 24.2021 34.4963 22.2077 33.8582 20.3664C33.2202 18.5251 32.0242 16.9284 30.4366 15.7983C28.849 14.6683 26.9487 14.061 25 14.061C23.0513 14.061 21.151 14.6683 19.5634 15.7983C17.9758 16.9284 16.7798 18.5251 16.1418 20.3664C15.5037 22.2077 15.4553 24.2021 16.0033 26.0722C16.5512 27.9423 17.6683 29.5951 19.1992 30.8009C16.3449 31.9286 13.8906 33.8798 12.1484 36.4064C9.35033 33.2664 7.80676 29.2059 7.8125 25.0001ZM18.75 23.4376C18.75 22.2015 19.1166 20.9931 19.8033 19.9653C20.4901 18.9375 21.4662 18.1364 22.6082 17.6634C23.7503 17.1903 25.0069 17.0665 26.2193 17.3077C27.4317 17.5489 28.5453 18.1441 29.4194 19.0182C30.2935 19.8923 30.8888 21.0059 31.1299 22.2183C31.3711 23.4307 31.2473 24.6873 30.7743 25.8294C30.3012 26.9714 29.5001 27.9475 28.4723 28.6343C27.4445 29.3211 26.2361 29.6876 25 29.6876C23.344 29.6825 21.7573 29.0223 20.5863 27.8513C19.4153 26.6803 18.7552 25.0936 18.75 23.4376ZM14.4727 38.5743C15.6034 36.8082 17.1602 35.3549 18.9999 34.3483C20.8396 33.3417 22.9029 32.8141 25 32.8141C27.0971 32.8141 29.1604 33.3417 31.0001 34.3483C32.8398 35.3549 34.3966 36.8082 35.5273 38.5743C32.5174 40.9151 28.8131 42.186 25 42.186C21.1869 42.186 17.4826 40.9151 14.4727 38.5743Z" fill="white"/>
</svg>
