<svg width="34" height="34" viewBox="0 0 34 34" fill="none" xmlns="http://www.w3.org/2000/svg">
<path fill-rule="evenodd" clip-rule="evenodd" d="M20.7778 3.77778C19.7346 3.77778 18.8889 2.93208 18.8889 1.88889C18.8889 0.845693 19.7346 0 20.7778 0H32.1111C33.1543 0 34 0.845693 34 1.88889V13.2222C34 14.2654 33.1543 15.1111 32.1111 15.1111C31.0679 15.1111 30.2222 14.2654 30.2222 13.2222V6.44907L6.44907 30.2222H13.2222C14.2654 30.2222 15.1111 31.0679 15.1111 32.1111C15.1111 33.1543 14.2654 34 13.2222 34H1.88889C0.845693 34 0 33.1543 0 32.1111V20.7778C0 19.7346 0.845693 18.8889 1.88889 18.8889C2.93208 18.8889 3.77778 19.7346 3.77778 20.7778V27.5508L27.5508 3.77778H20.7778Z" fill="black"/>
</svg>
