<svg width="49" height="34" viewBox="0 0 49 34" fill="none" xmlns="http://www.w3.org/2000/svg">
<path d="M2.45 0C3.80516 0 4.9 1.08527 4.9 2.42857V21.8571H22.05V9.71429C22.05 8.37098 23.1448 7.28571 24.5 7.28571H41.65C45.7078 7.28571 49 10.5491 49 14.5714V31.5714C49 32.9147 47.9052 34 46.55 34C45.1948 34 44.1 32.9147 44.1 31.5714V29.1429H26.95H24.5H4.9V31.5714C4.9 32.9147 3.80516 34 2.45 34C1.09484 34 0 32.9147 0 31.5714V2.42857C0 1.08527 1.09484 0 2.45 0ZM13.475 19.4286C10.0909 19.4286 7.35 16.7116 7.35 13.3571C7.35 10.0027 10.0909 7.28571 13.475 7.28571C16.8591 7.28571 19.6 10.0027 19.6 13.3571C19.6 16.7116 16.8591 19.4286 13.475 19.4286Z" fill="black"/>
</svg>
