<svg width="49" height="34" viewBox="0 0 49 34" fill="none" xmlns="http://www.w3.org/2000/svg">
<path fill-rule="evenodd" clip-rule="evenodd" d="M24.4999 14.5714C28.5593 14.5714 31.8498 11.3095 31.8498 7.28571C31.8498 3.26194 28.5593 0 24.4999 0C20.4405 0 17.1499 3.26194 17.1499 7.28571C17.1499 11.3095 20.4405 14.5714 24.4999 14.5714ZM24.4999 34C32.6184 34 39.1998 30.7382 39.1998 26.7143C39.1998 22.6904 32.6184 19.4286 24.4999 19.4286C16.3813 19.4286 9.79995 22.6904 9.79995 26.7143C9.79995 30.7382 16.3813 34 24.4999 34ZM10.735 19.4747C4.68435 19.8446 0 22.4014 0 25.5002C0 28.0551 3.18373 30.2413 7.69206 31.1374C6.68462 29.7852 6.12497 28.2887 6.12497 26.7145C6.12497 23.9377 7.86632 21.4028 10.735 19.4747ZM42.875 26.7145C42.875 28.2887 42.3152 29.7852 41.3078 31.1374C45.8162 30.2413 49 28.0551 49 25.5002C49 22.4014 44.3156 19.8446 38.2649 19.4747C41.1336 21.4028 42.875 23.9377 42.875 26.7145ZM33.6097 13.4431C34.818 11.6897 35.5248 9.56952 35.5248 7.28571C35.5248 6.52785 35.4469 5.78801 35.2987 5.07363C35.7573 4.93291 36.2446 4.85714 36.7498 4.85714C39.4558 4.85714 41.6498 7.03176 41.6498 9.71429C41.6498 12.3969 39.4558 14.5714 36.7498 14.5714C35.555 14.5714 34.4598 14.1474 33.6097 13.4431ZM12.2499 4.85714C12.7551 4.85714 13.2424 4.93291 13.7009 5.07363C13.5527 5.78801 13.4749 6.52785 13.4749 7.28571C13.4749 9.56952 14.1816 11.6897 15.3901 13.4431C14.5397 14.1474 13.4448 14.5714 12.2499 14.5714C9.54376 14.5714 7.34996 12.3969 7.34996 9.71429C7.34996 7.03176 9.54376 4.85714 12.2499 4.85714Z" fill="black"/>
</svg>
