<svg width="70" height="70" viewBox="0 0 70 70" fill="none" xmlns="http://www.w3.org/2000/svg">
<g clip-path="url(#clip0_159_108)">
<path d="M54.831 23.4526V3.69128C54.8299 2.71262 54.4406 1.77437 53.7486 1.08234C53.0565 0.390323 52.1183 0.00103577 51.1396 -0.00012207H18.6913C17.7127 0.00103577 16.7744 0.390323 16.0824 1.08234C15.3904 1.77437 15.0011 2.71262 14.9999 3.69128V23.4526C15.0003 23.9685 15.1091 24.4785 15.3194 24.9496C15.5297 25.4207 15.8367 25.8423 16.2206 26.187C15.8367 26.5317 15.5297 26.9533 15.3194 27.4243C15.1091 27.8954 15.0003 28.4055 14.9999 28.9214V62.3518C15.0011 63.3305 15.3904 64.2687 16.0824 64.9608C16.7744 65.6528 17.7127 66.0421 18.6913 66.0432H19.1928V68.9799C19.1928 69.2338 19.2937 69.4772 19.4731 69.6567C19.6526 69.8361 19.896 69.937 20.1499 69.937H26.9858C27.2396 69.937 27.483 69.8361 27.6625 69.6567C27.842 69.4772 27.9428 69.2338 27.9428 68.9799V66.0432H41.8881V68.9799C41.8881 69.2338 41.989 69.4772 42.1685 69.6567C42.3479 69.8361 42.5914 69.937 42.8452 69.937H49.6811C49.9349 69.937 50.1784 69.8361 50.3578 69.6567C50.5373 69.4772 50.6381 69.2338 50.6381 68.9799V66.0432H51.1396C52.1183 66.0421 53.0565 65.6528 53.7486 64.9608C54.4406 64.2687 54.8299 63.3305 54.831 62.3518V28.9214C54.8307 28.4055 54.7219 27.8954 54.5116 27.4243C54.3013 26.9533 53.9942 26.5317 53.6104 26.187C53.9942 25.8423 54.3013 25.4207 54.5116 24.9496C54.7219 24.4785 54.8307 23.9685 54.831 23.4526ZM26.0288 68.0229H21.1069V66.0432H26.0288V68.0229ZM48.7241 68.0229H43.8022V66.0432H48.7241V68.0229ZM52.917 28.9214V62.3518C52.9164 62.823 52.729 63.2748 52.3958 63.608C52.0626 63.9411 51.6108 64.1286 51.1396 64.1292H18.6913C18.2201 64.1286 17.7684 63.9411 17.4352 63.608C17.102 63.2748 16.9146 62.823 16.914 62.3518V28.9214C16.9146 28.4502 17.102 27.9984 17.4352 27.6652C17.7684 27.332 18.2201 27.1446 18.6913 27.144H51.1396C51.6108 27.1446 52.0626 27.332 52.3958 27.6652C52.729 27.9984 52.9164 28.4502 52.917 28.9214V28.9214ZM18.6913 25.23C18.2201 25.2294 17.7684 25.0419 17.4352 24.7087C17.102 24.3756 16.9146 23.9238 16.914 23.4526V3.69128C16.9146 3.22008 17.102 2.76834 17.4352 2.43515C17.7684 2.10196 18.2201 1.91452 18.6913 1.91394H51.1396C51.6108 1.91452 52.0626 2.10196 52.3958 2.43515C52.729 2.76834 52.9164 3.22008 52.917 3.69128V23.4526C52.9164 23.9238 52.729 24.3756 52.3958 24.7087C52.0626 25.0419 51.6108 25.2294 51.1396 25.23H18.6913Z" fill="white"/>
<path d="M48.485 6.93542H44.9303C44.6765 6.93542 44.4331 7.03625 44.2536 7.21573C44.0741 7.39521 43.9733 7.63864 43.9733 7.89246V19.3768C43.9733 19.6307 44.0741 19.8741 44.2536 20.0536C44.4331 20.233 44.6765 20.3339 44.9303 20.3339H48.485C48.7388 20.3339 48.9822 20.233 49.1617 20.0536C49.3412 19.8741 49.442 19.6307 49.442 19.3768V7.89246C49.442 7.63864 49.3412 7.39521 49.1617 7.21573C48.9822 7.03625 48.7388 6.93542 48.485 6.93542V6.93542ZM47.528 18.4198H45.8873V8.84949H47.528V18.4198Z" fill="white"/>
<path d="M44.9303 44.1646H48.485C48.7388 44.1646 48.9822 44.0637 49.1617 43.8843C49.3412 43.7048 49.442 43.4614 49.442 43.2075V31.7231C49.442 31.4693 49.3412 31.2259 49.1617 31.0464C48.9822 30.8669 48.7388 30.7661 48.485 30.7661H44.9303C44.6765 30.7661 44.4331 30.8669 44.2536 31.0464C44.0741 31.2259 43.9733 31.4693 43.9733 31.7231V43.2075C43.9733 43.4614 44.0741 43.7048 44.2536 43.8843C44.4331 44.0637 44.6765 44.1646 44.9303 44.1646ZM45.8873 32.6802H47.528V42.2505H45.8873V32.6802Z" fill="white"/>
</g>
<defs>
<clipPath id="clip0_159_108">
<rect width="70" height="70" fill="white"/>
</clipPath>
</defs>
</svg>
