<svg width="70" height="70" viewBox="0 0 70 70" fill="none" xmlns="http://www.w3.org/2000/svg">
<g clip-path="url(#clip0_159_119)">
<path d="M35.0001 0C20.2044 0 8.16669 12.6654 8.16669 28.2334C8.16669 43.4898 33.1135 68.5966 34.1752 69.6594C34.4027 69.8857 34.7015 70.0001 35.0001 70.0001C35.2988 70.0001 35.5974 69.8858 35.8249 69.6583C36.8865 68.5967 61.8334 43.49 61.8334 28.2335C61.8334 12.6654 49.7958 0 35.0001 0ZM35.0001 67.1627C30.6379 62.6384 10.5001 41.0491 10.5001 28.2334C10.5001 13.9521 21.4913 2.33338 35.0001 2.33338C48.5088 2.33338 59.5001 13.9521 59.5001 28.2334C59.5001 41.0434 39.3611 62.6371 35.0001 67.1627Z" fill="white"/>
<path d="M35.0001 5.83337C23.421 5.83337 14.0001 15.2543 14.0001 26.8334C14.0001 38.4125 23.421 47.8334 35.0001 47.8334C46.5792 47.8334 56.0001 38.4125 56.0001 26.8334C56.0001 15.2543 46.5792 5.83337 35.0001 5.83337ZM35.0001 45.5C24.7065 45.5 16.3335 37.1257 16.3335 26.8334C16.3335 16.5411 24.7065 8.16662 35.0001 8.16662C45.2936 8.16662 53.6667 16.5409 53.6667 26.8332C53.6667 37.1256 45.2936 45.5 35.0001 45.5Z" fill="white"/>
<path d="M35.0002 57.1666C34.3562 57.1666 33.8336 57.6893 33.8336 58.3332V68.8332C33.8336 69.4772 34.3562 69.9999 35.0002 69.9999C35.6441 69.9999 36.1668 69.4772 36.1668 68.8332V58.3332C36.1668 57.6893 35.6441 57.1666 35.0002 57.1666Z" fill="white"/>
<path d="M37.3335 18.6666H32.6669C32.0229 18.6666 31.5002 19.1893 31.5002 19.8332V24.5C31.5002 25.1439 32.0229 25.6666 32.6669 25.6666H37.3335C39.2631 25.6666 40.8335 24.0963 40.8335 22.1666C40.8335 20.237 39.2631 18.6666 37.3335 18.6666ZM37.3335 23.3334H33.8335V21H37.3335C37.9774 21 38.5001 21.5238 38.5001 22.1666C38.5001 22.8095 37.9774 23.3334 37.3335 23.3334Z" fill="white"/>
<path d="M37.3333 14H27.9999C27.356 14 26.8333 14.5227 26.8333 15.1666V38.5C26.8333 39.1439 27.356 39.6666 27.9999 39.6666H32.6666C33.3105 39.6666 33.8332 39.1439 33.8332 38.5V30.3334H37.3332C41.8366 30.3334 45.4998 26.67 45.4998 22.1668C45.4998 17.6635 41.8366 14 37.3333 14ZM37.3333 28H32.6667C32.0227 28 31.5001 28.5227 31.5001 29.1666V37.3332H29.1667V16.3332H37.3333C40.5498 16.3332 43.1667 18.95 43.1667 22.1666C43.1666 25.3832 40.5498 28 37.3333 28Z" fill="white"/>
<path d="M68.8335 67.6665H64.1669C63.523 67.6665 63.0003 68.1892 63.0003 68.8331C63.0003 69.4771 63.523 69.9997 64.1669 69.9997H68.8335C69.4775 69.9997 70.0002 69.4771 70.0002 68.8331C70.0002 68.1892 69.4775 67.6665 68.8335 67.6665Z" fill="white"/>
<path d="M28 67.6665H1.16662C0.522676 67.6665 0 68.1892 0 68.8331C0 69.477 0.522676 69.9999 1.16662 69.9999H28C28.6439 69.9999 29.1666 69.4772 29.1666 68.8332C29.1666 68.1893 28.6439 67.6665 28 67.6665Z" fill="white"/>
<path d="M56 67.6665H42C41.3561 67.6665 40.8334 68.1892 40.8334 68.8331C40.8334 69.477 41.3561 69.9999 42 69.9999H56C56.6439 69.9999 57.1666 69.4772 57.1666 68.8332C57.1666 68.1893 56.6439 67.6665 56 67.6665Z" fill="white"/>
</g>
<defs>
<clipPath id="clip0_159_119">
<rect width="70" height="70" fill="white"/>
</clipPath>
</defs>
</svg>
