<svg width="70" height="70" viewBox="0 0 70 70" fill="none" xmlns="http://www.w3.org/2000/svg">
<path d="M58.9166 0C56.9836 0 55.4166 1.56698 55.4166 3.5V4.66667H29.75C26.53 4.67046 23.9204 7.28 23.9166 10.5V16.3333H21.5833C19.6503 16.3333 18.0833 17.9003 18.0833 19.8333V23.8525C13.0014 26.9849 9.90962 32.5303 9.91662 38.5V39.8813C8.52318 40.374 7.58941 41.6888 7.58328 43.1667V45.5C7.58328 46.1443 8.10566 46.6667 8.74995 46.6667H46.0833C46.7276 46.6667 47.25 46.1443 47.25 45.5V43.1667C47.2438 41.6888 46.3101 40.374 44.9166 39.8813V38.5C44.9235 33.8543 43.0758 29.3981 39.7833 26.1205C38.8683 25.2382 37.8497 24.47 36.75 23.8327V19.8333C36.75 17.9003 35.183 16.3333 33.25 16.3333H30.9166V12.8333C30.9166 12.189 31.439 11.6667 32.0833 11.6667H55.4166V14C55.4166 15.933 56.9836 17.5 58.9166 17.5H62.4166V0H58.9166ZM44.9166 43.1667V44.3333H9.91662V43.1667C9.91662 42.5224 10.439 42 11.0833 42H43.75C44.3942 42 44.9166 42.5224 44.9166 43.1667ZM38.1395 27.7737C40.9905 30.6144 42.59 34.4753 42.5833 38.5V39.6667H12.2499V38.5C12.2462 33.2284 15.0295 28.3477 19.5685 25.6667H35.273C36.3165 26.2405 37.2803 26.9488 38.1395 27.7737ZM33.25 18.6667C33.8942 18.6667 34.4166 19.189 34.4166 19.8333V23.3333H20.4166V19.8333C20.4166 19.189 20.939 18.6667 21.5833 18.6667H33.25ZM55.4166 9.33333H32.0833C30.1503 9.33333 28.5833 10.9003 28.5833 12.8333V16.3333H26.25V10.5C26.25 8.56698 27.8169 7 29.75 7H55.4166V9.33333ZM60.0833 15.1667H58.9166C58.2723 15.1667 57.75 14.6443 57.75 14V3.5C57.75 2.85571 58.2723 2.33333 58.9166 2.33333H60.0833V15.1667Z" fill="white"/>
<path d="M27.4167 49C26.7724 49 26.25 49.5224 26.25 50.1667V54.8333C26.25 55.4776 26.7724 56 27.4167 56C28.061 56 28.5833 55.4776 28.5833 54.8333V50.1667C28.5833 49.5224 28.061 49 27.4167 49Z" fill="white"/>
<path d="M27.4167 58.3334C26.7724 58.3334 26.25 58.8557 26.25 59.5V64.1667C26.25 64.811 26.7724 65.3334 27.4167 65.3334C28.061 65.3334 28.5833 64.811 28.5833 64.1667V59.5C28.5833 58.8557 28.061 58.3334 27.4167 58.3334Z" fill="white"/>
<path d="M41.4167 53.6666C40.7724 53.6666 40.25 54.189 40.25 54.8333V59.5C40.25 60.1443 40.7724 60.6666 41.4167 60.6666C42.061 60.6666 42.5833 60.1443 42.5833 59.5V54.8333C42.5833 54.189 42.061 53.6666 41.4167 53.6666Z" fill="white"/>
<path d="M32.0834 53.6666C31.4391 53.6666 30.9167 54.189 30.9167 54.8333V59.5C30.9167 60.1443 31.4391 60.6666 32.0834 60.6666C32.7277 60.6666 33.2501 60.1443 33.2501 59.5V54.8333C33.2501 54.189 32.7277 53.6666 32.0834 53.6666Z" fill="white"/>
<path d="M22.7499 53.6666C22.1057 53.6666 21.5833 54.189 21.5833 54.8333V59.5C21.5833 60.1443 22.1057 60.6666 22.7499 60.6666C23.3942 60.6666 23.9166 60.1443 23.9166 59.5V54.8333C23.9166 54.189 23.3942 53.6666 22.7499 53.6666Z" fill="white"/>
<path d="M13.4167 53.6666C12.7724 53.6666 12.25 54.189 12.25 54.8333V59.5C12.25 60.1443 12.7724 60.6666 13.4167 60.6666C14.061 60.6666 14.5833 60.1443 14.5833 59.5V54.8333C14.5833 54.189 14.061 53.6666 13.4167 53.6666Z" fill="white"/>
<path d="M18.0834 49C17.4391 49 16.9167 49.5224 16.9167 50.1667V54.8333C16.9167 55.4776 17.4391 56 18.0834 56C18.7277 56 19.25 55.4776 19.25 54.8333V50.1667C19.25 49.5224 18.7277 49 18.0834 49Z" fill="white"/>
<path d="M36.75 49C36.1057 49 35.5833 49.5224 35.5833 50.1667V54.8333C35.5833 55.4776 36.1057 56 36.75 56C37.3942 56 37.9166 55.4776 37.9166 54.8333V50.1667C37.9166 49.5224 37.3942 49 36.75 49Z" fill="white"/>
<path d="M36.75 58.3334C36.1057 58.3334 35.5833 58.8557 35.5833 59.5V64.1667C35.5833 64.811 36.1057 65.3334 36.75 65.3334C37.3942 65.3334 37.9166 64.811 37.9166 64.1667V59.5C37.9166 58.8557 37.3942 58.3334 36.75 58.3334Z" fill="white"/>
<path d="M18.0834 58.3334C17.4391 58.3334 16.9167 58.8557 16.9167 59.5V64.1667C16.9167 64.811 17.4391 65.3334 18.0834 65.3334C18.7277 65.3334 19.25 64.811 19.25 64.1667V59.5C19.25 58.8557 18.7277 58.3334 18.0834 58.3334Z" fill="white"/>
<path d="M22.7499 63C22.1057 63 21.5833 63.5224 21.5833 64.1667V68.8333C21.5833 69.4776 22.1057 70 22.7499 70C23.3942 70 23.9166 69.4776 23.9166 68.8333V64.1667C23.9166 63.5224 23.3942 63 22.7499 63Z" fill="white"/>
<path d="M32.0834 63C31.4391 63 30.9167 63.5224 30.9167 64.1667V68.8333C30.9167 69.4776 31.4391 70 32.0834 70C32.7277 70 33.2501 69.4776 33.2501 68.8333V64.1667C33.2501 63.5224 32.7277 63 32.0834 63Z" fill="white"/>
</svg>
