<svg width="70" height="70" viewBox="0 0 70 70" fill="none" xmlns="http://www.w3.org/2000/svg">
<g clip-path="url(#clip0_159_86)">
<g clip-path="url(#clip1_159_86)">
<path d="M70.0001 19.8331C69.995 15.3249 66.3416 11.6716 61.8334 11.6664H26.8334C26.1171 11.6639 25.404 11.7617 24.7148 11.9569C24.2784 12.0619 12.7541 16.4066 5.92327 18.9861H5.91393C4.58257 19.3577 3.37103 20.0698 2.39877 21.0523C0.854324 22.5782 -0.0103041 24.662 9.95471e-05 26.8331C0.00203619 29.7033 1.51186 32.3615 3.9761 33.8331C1.51289 35.3057 0.00343077 37.9632 9.95471e-05 40.8331C0.00465804 43.7041 1.51648 46.3619 3.98193 47.8331C0.826803 49.7136 -0.68272 53.4706 0.294243 57.0113C1.27121 60.552 4.49375 63.0033 8.16677 62.9998H43.1668C44.3738 62.9987 45.5653 62.7277 46.6539 62.2064C46.6625 62.207 46.6711 62.207 46.6796 62.2064L65.4501 55.1563C68.1308 53.8357 69.8735 51.1536 69.991 48.1676C70.1086 45.1816 68.5822 42.3709 66.0136 40.8436C66.5958 40.5062 67.1292 40.0909 67.5991 39.6093C69.1432 38.0848 70.0086 36.0029 70.0001 33.8331C69.9899 30.9663 68.4808 28.3137 66.0218 26.8401C66.6014 26.5029 67.1327 26.0888 67.6014 25.6093C69.1447 24.0844 70.0093 22.0026 70.0001 19.8331ZM25.3576 14.1993C25.838 14.065 26.3346 13.9979 26.8334 13.9998H61.8334C65.0535 14.0036 67.6629 16.613 67.6668 19.8331C67.6739 21.3813 67.057 22.8671 65.9553 23.9549C65.5589 24.3675 65.0949 24.7092 64.5833 24.9653C64.5203 24.9991 64.4666 25.0306 64.4071 25.0609C62.8333 25.6443 60.0624 26.6849 55.7679 28.2973L50.5833 30.2444C51.7488 27.7167 51.5456 24.7692 50.0442 22.4254C48.5428 20.0815 45.9503 18.6645 43.1668 18.6664H13.3841C19.1929 16.4789 24.8828 14.3498 25.3576 14.1993V14.1993ZM2.33343 26.8331C2.32678 25.2821 2.94592 23.794 4.05077 22.7054C4.75596 21.9895 5.6403 21.4758 6.6116 21.2179C6.64077 21.2086 6.6746 21.1981 6.70843 21.1853C7.18446 21.0605 7.67467 20.9982 8.16677 20.9998H43.1668C46.3868 21.0036 48.9962 23.613 49.0001 26.8331C48.9916 29.0158 47.7736 31.0138 45.8373 32.0213C45.8031 32.0344 45.7696 32.0491 45.7369 32.0656C44.9392 32.4647 44.0588 32.6705 43.1668 32.6664H8.16677C4.9467 32.6626 2.33729 30.0532 2.33343 26.8331V26.8331ZM2.33343 40.8331C2.33921 37.6138 4.9475 35.0055 8.16677 34.9998H43.1668C46.3868 35.0036 48.9962 37.613 49.0001 40.8331C48.9916 43.0158 47.7736 45.0138 45.8373 46.0213C45.8031 46.0343 45.7696 46.0491 45.7369 46.0656C44.9392 46.4647 44.0588 46.6705 43.1668 46.6664H8.16677C4.9467 46.6626 2.33729 44.0532 2.33343 40.8331ZM8.16677 60.6664C4.94511 60.6664 2.33343 58.0548 2.33343 54.8331C2.33343 51.6114 4.94511 48.9998 8.16677 48.9998H43.1668C46.3884 48.9998 49.0001 51.6114 49.0001 54.8331C49.0001 58.0548 46.3884 60.6664 43.1668 60.6664H8.16677ZM67.6668 47.8331C67.6738 49.3811 67.0574 50.8667 65.9564 51.9549C65.537 52.3796 65.055 52.7376 64.5273 53.0166L50.5751 58.2491C52.3137 54.5129 50.9792 50.0668 47.4706 47.9054L62.8706 42.1281C65.6374 42.6218 67.6558 45.0226 67.6668 47.8331V47.8331ZM67.6668 33.8331C67.6739 35.3813 67.057 36.8671 65.9553 37.9549C65.5589 38.3675 65.0949 38.7092 64.5833 38.9653C64.5191 39.0003 64.4584 39.0318 64.4048 39.0621L50.5821 44.2456C52.31 40.508 50.9742 36.0688 47.4706 33.9054L56.5834 30.4824C59.2458 29.4826 61.3143 28.7056 62.8834 28.1188C65.6453 28.6241 67.6554 31.0254 67.6668 33.8331V33.8331Z" fill="white"/>
<path d="M45.5004 26.833C45.5004 26.1887 44.978 25.6664 44.3337 25.6664H7.00036C6.35603 25.6664 5.83369 26.1887 5.83369 26.833C5.83369 27.4774 6.35603 27.9997 7.00036 27.9997H44.3337C44.978 27.9997 45.5004 27.4774 45.5004 26.833Z" fill="white"/>
<path d="M45.5004 40.8331C45.5004 40.1888 44.978 39.6665 44.3337 39.6665H7.00036C6.35603 39.6665 5.83369 40.1888 5.83369 40.8331C5.83369 41.4775 6.35603 41.9998 7.00036 41.9998H44.3337C44.978 41.9998 45.5004 41.4775 45.5004 40.8331Z" fill="white"/>
<path d="M44.3337 53.6665H7.00036C6.35603 53.6665 5.83369 54.1888 5.83369 54.8332C5.83369 55.4775 6.35603 55.9998 7.00036 55.9998H44.3337C44.978 55.9998 45.5004 55.4775 45.5004 54.8332C45.5004 54.1888 44.978 53.6665 44.3337 53.6665Z" fill="white"/>
<path d="M11.6668 2.33325C11.0225 2.33325 10.5001 2.85559 10.5001 3.49992V5.83325C10.5001 6.47758 11.0225 6.99992 11.6668 6.99992C12.3111 6.99992 12.8334 6.47758 12.8334 5.83325V3.49992C12.8334 2.85559 12.3111 2.33325 11.6668 2.33325Z" fill="white"/>
<path d="M10.5001 12.8335C10.5001 13.4778 11.0225 14.0002 11.6668 14.0002C12.3111 14.0002 12.8334 13.4778 12.8334 12.8335V10.5002C12.8334 9.85583 12.3111 9.3335 11.6668 9.3335C11.0225 9.3335 10.5001 9.85583 10.5001 10.5002V12.8335Z" fill="white"/>
<path d="M9.33369 6.99988H7.00036C6.35603 6.99988 5.83369 7.52221 5.83369 8.16655C5.83369 8.81088 6.35603 9.33322 7.00036 9.33322H9.33369C9.97802 9.33322 10.5004 8.81088 10.5004 8.16655C10.5004 7.52221 9.97802 6.99988 9.33369 6.99988Z" fill="white"/>
<path d="M14.0002 9.33322H16.3336C16.9779 9.33322 17.5002 8.81088 17.5002 8.16655C17.5002 7.52221 16.9779 6.99988 16.3336 6.99988H14.0002C13.3559 6.99988 12.8336 7.52221 12.8336 8.16655C12.8336 8.81088 13.3559 9.33322 14.0002 9.33322Z" fill="white"/>
<path d="M67.9081 63.9254C67.4504 63.4833 66.7227 63.4896 66.2727 63.9396C65.8227 64.3896 65.8163 65.1173 66.2585 65.5751L68.0085 67.3251C68.4662 67.7672 69.1939 67.7609 69.6439 67.3109C70.0939 66.8608 70.1003 66.1332 69.6581 65.6754L67.9081 63.9254Z" fill="white"/>
<path d="M62.7587 62.0748C63.2165 62.517 63.9441 62.5106 64.3942 62.0606C64.8442 61.6106 64.8505 60.8829 64.4084 60.4252L62.6584 58.6752C62.2006 58.233 61.4729 58.2393 61.0229 58.6894C60.5729 59.1394 60.5666 59.867 61.0087 60.3248L62.7587 62.0748Z" fill="white"/>
<path d="M61.0085 67.3251C61.4641 67.7805 62.2026 67.7805 62.6582 67.3251L64.4082 65.5751C64.8503 65.1173 64.844 64.3896 64.3939 63.9396C63.9439 63.4896 63.2163 63.4833 62.7585 63.9254L61.0085 65.6754C60.5531 66.131 60.5531 66.8695 61.0085 67.3251Z" fill="white"/>
<path d="M68.0084 58.6752L66.2584 60.4252C65.9551 60.7181 65.8335 61.1518 65.9402 61.5597C66.047 61.9676 66.3655 62.2862 66.7734 62.393C67.1813 62.4997 67.6151 62.3781 67.908 62.0748L69.658 60.3248C70.1002 59.867 70.0938 59.1394 69.6438 58.6894C69.1938 58.2393 68.4661 58.233 68.0084 58.6752V58.6752Z" fill="white"/>
</g>
</g>
<defs>
<clipPath id="clip0_159_86">
<rect width="70" height="70" fill="white"/>
</clipPath>
<clipPath id="clip1_159_86">
<rect width="70" height="70" fill="white"/>
</clipPath>
</defs>
</svg>
