<svg width="70" height="70" viewBox="0 0 70 70" fill="none" xmlns="http://www.w3.org/2000/svg">
<g clip-path="url(#clip0_159_157)">
<path d="M69.9993 32.6673C70.0006 29.5908 68.6515 26.6689 66.3092 24.6745C67.2019 23.2183 67.6718 21.5422 67.666 19.8341C67.6598 15.1016 64.1175 11.1203 59.4177 10.5639C59.4723 10.1563 59.4997 9.74551 59.4994 9.33426C59.5115 4.19124 55.3521 0.0122954 50.2091 0.000191411C47.1828 -0.00695432 44.3417 1.45705 42.5912 3.92568C39.6203 -0.266971 33.8131 -1.25731 29.6205 1.71356C28.7636 2.3208 28.0156 3.06877 27.4084 3.92568C24.421 -0.265513 18.6018 -1.24142 14.4106 1.74579C11.5997 3.74922 10.1265 7.14228 10.5818 10.5639C5.88209 11.1203 2.33971 15.1016 2.33358 19.8341C2.32775 21.5422 2.79762 23.2183 3.6904 24.6745C-0.723186 28.4358 -1.25197 35.063 2.50931 39.4766C2.87097 39.9011 3.26603 40.296 3.6904 40.6576C2.79718 42.1146 2.32731 43.7914 2.33358 45.5004C2.33942 50.6526 6.51456 54.8278 11.6668 54.8336H18.6667V67.6667H15.1667C14.5224 67.6667 14.0001 68.1891 14.0001 68.8334C14.0001 69.4777 14.5224 70 15.1667 70H54.8328C55.4771 70 55.9995 69.4777 55.9995 68.8334C55.9995 68.1891 55.4771 67.6667 54.8328 67.6667H51.3329V54.8336H58.3328C63.485 54.8278 67.6601 50.6526 67.666 45.5004C67.6718 43.7923 67.2019 42.1162 66.3092 40.66C68.6515 38.6656 70.0004 35.7436 69.9993 32.6673ZM11.6668 52.4898C7.80648 52.486 4.67651 49.3607 4.66688 45.5004C4.66236 43.9138 5.2031 42.3738 6.19869 41.1383C6.60075 40.6349 6.51865 39.9008 6.01524 39.4986C5.99088 39.479 5.96565 39.4605 5.9397 39.4432C2.19752 36.9255 1.2047 31.851 3.72219 28.1087C4.3112 27.2333 5.06413 26.4802 5.9397 25.8914C6.47373 25.531 6.6146 24.8058 6.25411 24.2718C6.23661 24.2458 6.21809 24.2207 6.19869 24.1962C5.2031 22.9607 4.66236 21.4208 4.66688 19.8341C4.67067 15.9697 7.8024 12.838 11.6668 12.8342L11.9689 12.8505C12.3462 12.8694 12.7083 12.7003 12.9361 12.3991C13.168 12.1016 13.2406 11.7099 13.1309 11.3491C12.0381 7.64087 14.1583 3.74878 17.8666 2.65592C21.1632 1.6844 24.6773 3.24975 26.1601 6.34997C26.1601 6.36164 26.1601 6.37331 26.1519 6.38497C26.0065 6.82232 25.8941 7.27002 25.8159 7.72429C25.8019 7.80245 25.7914 7.88179 25.7797 7.95762C25.6402 8.8189 25.6295 9.69607 25.7482 10.5604C21.0472 11.1171 17.5044 15.1001 17.5 19.8341C17.4942 21.5422 17.9641 23.2183 18.8568 24.6745C18.8358 24.6932 18.8183 24.713 18.7973 24.7317L13.3666 19.301C12.9031 18.8534 12.1645 18.8662 11.7169 19.3297C11.2803 19.7818 11.2803 20.4985 11.7169 20.9506L17.2142 26.4478C13.9442 30.8814 14.6617 37.0892 18.8568 40.66C18.4067 41.3942 18.0625 42.1883 17.8349 43.0189L13.6583 38.8423C13.1948 38.3946 12.4563 38.4075 12.0086 38.8709C11.572 39.323 11.572 40.0398 12.0086 40.492L17.5257 46.0091C17.535 46.1712 17.5374 46.3346 17.5549 46.4932C17.5665 46.6029 17.5887 46.7079 17.6039 46.8152C17.6342 47.0311 17.6645 47.2457 17.71 47.4569C17.7369 47.5829 17.7742 47.7042 17.8057 47.8279C17.8535 48.0145 17.9014 48.2024 17.9609 48.3844C18.0029 48.5139 18.053 48.6375 18.1009 48.7647C18.165 48.935 18.2292 49.1065 18.3038 49.2722C18.3598 49.3982 18.4205 49.5207 18.4823 49.6432C18.5617 49.803 18.6433 49.9605 18.7308 50.1098C18.7997 50.2265 18.8732 50.3432 18.9478 50.4598C19.0412 50.608 19.1368 50.7527 19.2383 50.8938C19.3188 51.0105 19.4028 51.119 19.4892 51.2287C19.5953 51.3663 19.7062 51.4982 19.8205 51.6288C19.9127 51.7338 20.006 51.8376 20.1017 51.938C20.2183 52.064 20.3478 52.1841 20.4762 52.3031C20.5403 52.3638 20.5998 52.4315 20.6663 52.4898H11.6668V52.4898ZM33.8331 67.6667H21V54.8336H33.8331V67.6667ZM34.9998 15.1675C34.3555 15.1675 33.8331 15.6899 33.8331 16.3342V24.601L28.533 19.301C28.0696 18.8534 27.3309 18.8662 26.8834 19.3297C26.4468 19.7818 26.4468 20.4985 26.8834 20.9506L33.8331 27.9003V43.8508L28.8247 38.8423C28.3612 38.3946 27.6228 38.4075 27.1751 38.8709C26.7384 39.323 26.7384 40.0398 27.1751 40.492L33.8331 47.15V52.5003H26.8332C22.9688 52.4965 19.8371 49.3648 19.8333 45.5004C19.8288 43.9138 20.3695 42.3738 21.3651 41.1383C21.7672 40.6349 21.6851 39.9008 21.1817 39.4986C21.1573 39.479 21.1321 39.4605 21.1061 39.4432C17.364 36.9255 16.3712 31.851 18.8886 28.1087C19.4776 27.2333 20.2306 26.4802 21.1061 25.8914C21.6402 25.531 21.7811 24.8058 21.4206 24.2718C21.4031 24.2458 21.3845 24.2207 21.3651 24.1962C20.3695 22.9607 19.8288 21.4208 19.8333 19.8341C19.8371 15.9697 22.9688 12.838 26.8332 12.8342L27.1354 12.8505C27.5131 12.8715 27.8761 12.7021 28.1025 12.3991C28.3344 12.1016 28.407 11.7099 28.2974 11.3491C28.1008 10.6955 28.0005 10.0168 27.9999 9.33426C28.0005 8.90362 28.0416 8.47401 28.1224 8.05095C28.1224 8.03462 28.1224 8.01712 28.1294 8.00078C28.214 7.57962 28.3362 7.16692 28.4945 6.76764C29.5479 4.09499 32.127 2.33728 34.9998 2.33437C37.8725 2.33728 40.4517 4.09499 41.505 6.76764C41.6638 7.16955 41.786 7.58502 41.8702 8.00895C41.8702 8.02528 41.8702 8.04278 41.8772 8.05912C41.9575 8.4794 41.9985 8.9064 41.9997 9.33426C41.9991 10.0168 41.8988 10.6955 41.7022 11.3491C41.5925 11.7099 41.6651 12.1016 41.897 12.3991C42.1244 12.7009 42.4867 12.8701 42.8642 12.8505L43.1663 12.8342C47.0307 12.838 50.1624 15.9697 50.1662 19.8341C50.1707 21.4208 49.63 22.9607 48.6344 24.1962C48.2323 24.6996 48.3145 25.4337 48.8179 25.8359C48.8422 25.8555 48.8674 25.874 48.8934 25.8914C52.6356 28.409 53.6284 33.4835 51.1108 37.2258C50.5218 38.1012 49.7688 38.8543 48.8934 39.4432C48.3594 39.8035 48.2185 40.5287 48.579 41.0628C48.5965 41.0887 48.615 41.1138 48.6344 41.1383C49.63 42.3738 50.1707 43.9138 50.1662 45.5004C50.1624 49.3648 47.0307 52.4965 43.1663 52.5003H36.1664V36.5697C36.2535 36.5267 36.3347 36.4726 36.4079 36.4087L43.9911 28.8255C44.4388 28.362 44.426 27.6235 43.9626 27.1758C43.5105 26.7392 42.7937 26.7392 42.3415 27.1758L36.1664 33.3509V16.3342C36.1664 15.6897 35.6441 15.1675 34.9998 15.1675ZM48.9996 67.6667H36.1664V54.8336H48.9996V67.6667ZM63.7453 41.0628C63.7628 41.0887 63.7813 41.1138 63.8007 41.1383C64.7963 42.3738 65.337 43.9138 65.3325 45.5004C65.3287 49.3648 62.197 52.4965 58.3326 52.5003H49.3332C49.3997 52.442 49.4592 52.3743 49.5234 52.3136C49.6517 52.197 49.7766 52.0745 49.8979 51.9485C49.9936 51.8481 50.0869 51.7443 50.1791 51.6393C50.2957 51.5087 50.4042 51.3768 50.5104 51.2392C50.5967 51.1295 50.6807 51.0187 50.7612 50.9043C50.8627 50.7632 50.9584 50.6185 51.0517 50.4703C51.1264 50.3537 51.1999 50.237 51.2687 50.1203C51.3562 49.9663 51.4379 49.8088 51.5172 49.6537C51.5779 49.5312 51.6339 49.4087 51.6957 49.2827C51.7704 49.117 51.8345 48.9455 51.8987 48.7752C51.9465 48.648 51.9967 48.5244 52.0387 48.3949C52.0982 48.2129 52.146 48.025 52.1939 47.8384C52.2254 47.7147 52.2627 47.5934 52.2895 47.4674C52.335 47.2562 52.3654 47.0415 52.3957 46.8257C52.4109 46.7184 52.433 46.6134 52.4447 46.5037C52.481 46.1705 52.4994 45.8355 52.4995 45.5004C52.5054 43.7923 52.0355 42.1162 51.1427 40.66C53.3446 38.7792 54.6702 36.071 54.8048 33.1783L59.1576 28.8255C59.6053 28.362 59.5925 27.6235 59.129 27.1758C58.6769 26.7392 57.9602 26.7392 57.5079 27.1758L54.5202 30.1636C53.9978 28.0268 52.8161 26.1084 51.1427 24.6804C52.0365 23.2225 52.5064 21.5443 52.4995 19.8341C52.4934 15.1016 48.951 11.1203 44.2513 10.5639C44.3688 9.69943 44.357 8.8221 44.2163 7.96112C44.2046 7.88179 44.1941 7.80245 44.1801 7.72779C44.102 7.27352 43.9895 6.82582 43.8441 6.38847C43.8441 6.37681 43.8441 6.36514 43.836 6.35347C45.5041 2.86592 49.6835 1.39098 53.1711 3.05915C56.2713 4.54196 57.8365 8.0562 56.8651 11.3526C56.7555 11.7134 56.8281 12.1051 57.0599 12.4026C57.2877 12.7038 57.6498 12.8729 58.0271 12.854L58.3328 12.8342C62.1971 12.838 65.3289 15.9697 65.3327 19.8341C65.3372 21.4208 64.7964 22.9607 63.8009 24.1962C63.3988 24.6996 63.4809 25.4337 63.9843 25.8359C64.0087 25.8555 64.0339 25.874 64.0598 25.8914C67.802 28.409 68.7948 33.4835 66.2772 37.2258C65.6882 38.1012 64.9353 38.8543 64.0598 39.4432C63.5257 39.8035 63.3849 40.5287 63.7453 41.0628Z" fill="white"/>
</g>
<defs>
<clipPath id="clip0_159_157">
<rect width="70" height="70" fill="white"/>
</clipPath>
</defs>
</svg>
