<svg width="70" height="70" viewBox="0 0 70 70" fill="none" xmlns="http://www.w3.org/2000/svg">
<path d="M5.83333 58.3333V26.25C5.83333 24.7029 6.44791 23.2191 7.54187 22.1252C8.63583 21.0312 10.1196 20.4166 11.6667 20.4166H58.3333C59.8804 20.4166 61.3642 21.0312 62.4581 22.1252C63.5521 23.2191 64.1667 24.7029 64.1667 26.25V58.3333C64.1667 59.8804 63.5521 61.3641 62.4581 62.4581C61.3642 63.552 59.8804 64.1666 58.3333 64.1666H11.6667C10.1196 64.1666 8.63583 63.552 7.54187 62.4581C6.44791 61.3641 5.83333 59.8804 5.83333 58.3333Z" stroke="white" stroke-width="3"/>
<path d="M24.7917 7.29163L35 17.5L45.2083 7.29163" stroke="white" stroke-width="3" stroke-linecap="round" stroke-linejoin="round"/>
</svg>
