<svg width="71" height="71" viewBox="0 0 71 71" fill="none" xmlns="http://www.w3.org/2000/svg">
<g clip-path="url(#clip0_159_173)">
<path d="M48.5596 41.979C44.931 38.4842 40.1397 36.5594 35.0686 36.5594C29.9963 36.5594 25.2045 38.4847 21.5759 41.9806C20.9065 42.6254 20.2794 43.3221 19.7116 44.0509C18.3824 45.7589 18.5414 48.2097 20.0803 49.7567C20.083 49.7594 20.0857 49.762 20.0884 49.7647C20.9055 50.5818 21.9906 51.0318 23.1433 51.0318C24.4971 51.0318 25.7567 50.4175 26.5989 49.3457C26.8628 49.0097 27.1512 48.6849 27.4556 48.3809C29.4842 46.3524 32.1876 45.2351 35.0686 45.2351C37.949 45.2351 40.6529 46.3524 42.6815 48.3804C42.9849 48.6843 43.2733 49.0091 43.5382 49.3457C44.3804 50.417 45.6395 51.0318 46.9933 51.0318H46.9938C48.1465 51.0318 49.2316 50.5818 50.0482 49.7647C50.0514 49.762 50.0541 49.7594 50.0568 49.7567C51.5957 48.2097 51.7547 45.7589 50.4249 44.0509C49.8572 43.3215 49.2295 42.6248 48.5596 41.979V41.979ZM48.5959 48.3114C48.5938 48.3135 48.5917 48.3157 48.5901 48.3178C48.1614 48.7432 47.5948 48.9776 46.9933 48.9776C46.2741 48.9776 45.6036 48.649 45.1531 48.0759C44.8379 47.6751 44.4949 47.2888 44.1337 46.9281C41.7177 44.5111 38.498 43.1808 35.0686 43.1808C31.6385 43.1808 28.4194 44.5116 26.0028 46.9281C25.6406 47.2904 25.2981 47.6762 24.9835 48.0765C24.5335 48.649 23.863 48.9776 23.1433 48.9776C22.5418 48.9776 21.9757 48.7432 21.547 48.3178C21.5449 48.3162 21.5428 48.314 21.5412 48.3119C20.7262 47.4969 20.6368 46.2079 21.333 45.3132C21.8408 44.6614 22.4021 44.038 23.0015 43.4601C26.2452 40.3351 30.5309 38.6142 35.0686 38.6142C39.6057 38.6142 43.8908 40.3346 47.134 43.4591C47.7339 44.037 48.2958 44.6609 48.8036 45.3132C49.5003 46.2079 49.4109 47.4969 48.5959 48.3114Z" fill="white"/>
<path d="M35.0685 49.8049C33.4155 49.8049 31.8611 50.4487 30.6924 51.6173C29.5237 52.786 28.88 54.3399 28.88 55.9929C28.88 57.6458 29.5237 59.2003 30.6924 60.3689C31.8611 61.5376 33.4155 62.1813 35.0685 62.1813C36.7214 62.1813 38.2753 61.5376 39.444 60.3689C41.8568 57.9562 41.8568 54.0301 39.444 51.6173C38.2753 50.4487 36.7214 49.8049 35.0685 49.8049V49.8049ZM37.9912 58.9161C37.2105 59.6968 36.1724 60.1271 35.0685 60.1271C33.964 60.1271 32.9259 59.6968 32.1452 58.9161C31.3645 58.1354 30.9343 57.0973 30.9343 55.9934C30.9343 54.8889 31.3645 53.8508 32.1452 53.0701C32.9259 52.2894 33.964 51.8592 35.0685 51.8592C36.1724 51.8592 37.2105 52.2894 37.9912 53.0701C39.6029 54.6819 39.6029 57.3044 37.9912 58.9161Z" fill="white"/>
<path d="M69.0025 24.9654C68.5429 24.463 68.0634 23.9616 67.5775 23.4757C60.8914 16.7923 52.4785 12.3777 43.248 10.7098C34.2256 9.07983 25.0299 10.1575 16.655 13.8278C16.1354 14.0557 15.8984 14.6615 16.1263 15.1811C16.3543 15.7007 16.96 15.9377 17.4796 15.7098C34.1304 8.41309 53.225 12.032 66.1247 24.929C66.5892 25.3935 67.0478 25.8724 67.4871 26.3524C68.3096 27.2508 68.2732 28.6346 67.4047 29.5031C66.9568 29.9504 66.3607 30.1912 65.7293 30.1752C65.1048 30.1613 64.5296 29.9017 64.1106 29.4432C63.7162 29.0124 63.3063 28.5838 62.8922 28.1696C55.4773 20.7547 45.5966 16.6719 35.0684 16.6719C35.0679 16.6719 35.0663 16.6719 35.0658 16.6719C24.5365 16.6724 14.6548 20.7574 7.24095 28.1734C6.82679 28.5881 6.41797 29.0151 6.02627 29.4432C5.60675 29.9017 5.03205 30.1618 4.40759 30.1752C3.77188 30.1902 3.18006 29.9504 2.73218 29.5031C1.86371 28.6346 1.82732 27.2508 2.64924 26.3529C3.08749 25.874 3.545 25.3962 4.0084 24.9328C7.013 21.9276 10.4056 19.3843 14.0903 17.3734C14.5885 17.1016 14.772 16.4776 14.5002 15.9794C14.2283 15.4818 13.6044 15.2977 13.1062 15.5701C9.24866 17.6747 5.69879 20.3363 2.55506 23.48C2.07079 23.9648 1.59241 24.4646 1.13383 24.9654C-0.432418 26.6767 -0.368741 29.3078 1.27938 30.9559C2.10397 31.78 3.19183 32.2305 4.35354 32.2305C4.38618 32.2305 4.41989 32.23 4.45307 32.2294C5.64367 32.2032 6.74063 31.7061 7.54222 30.8302C7.91358 30.424 8.30099 30.0189 8.69376 29.6262C15.7197 22.5981 25.0856 18.7272 35.0658 18.7267H35.0684C45.047 18.7267 54.4129 22.596 61.4394 29.6224C61.8321 30.0152 62.2212 30.4219 62.5947 30.8302C63.3962 31.7061 64.4932 32.2032 65.6838 32.2294C66.8696 32.2551 68.0217 31.7912 68.8575 30.9559C70.5051 29.3078 70.5693 26.6767 69.0025 24.9654V24.9654Z" fill="white"/>
<path d="M57.6285 32.2991C52.0618 26.993 44.7523 23.8182 37.0457 23.3591C36.4785 23.3259 35.9927 23.7572 35.9589 24.3233C35.9252 24.89 36.3571 25.3764 36.9237 25.4101C44.146 25.8404 50.9953 28.8145 56.211 33.7861C56.8713 34.4159 57.5097 35.08 58.1079 35.7601C58.9058 36.6671 58.8635 38.0445 58.0116 38.8963C57.5605 39.3469 56.9628 39.5839 56.3244 39.5636C55.6823 39.5427 55.0937 39.265 54.6677 38.7802C54.199 38.2473 53.7013 37.7261 53.1893 37.2306C48.3193 32.5243 41.8841 29.9328 35.0691 29.9323H35.0685C28.254 29.9323 21.8189 32.5238 16.9489 37.2295C16.4352 37.7255 15.9375 38.2473 15.4688 38.7802C15.0428 39.265 14.4548 39.5427 13.8121 39.5636C13.1753 39.585 12.576 39.3469 12.1249 38.8958C11.2741 38.045 11.226 36.6735 12.0158 35.7745C12.4155 35.3192 12.8345 34.8697 13.2615 34.4384C18.5654 29.0735 25.6518 25.8677 33.2149 25.4117C33.7811 25.3775 34.2124 24.8906 34.1787 24.3244C34.1444 23.7583 33.658 23.3254 33.0913 23.3607C25.022 23.8471 17.461 27.2686 11.8007 32.9936C11.3458 33.4538 10.899 33.9333 10.472 34.4186C8.96943 36.1293 9.05772 38.7342 10.6721 40.3486C11.4951 41.1711 12.5771 41.6189 13.734 41.6189C13.7821 41.6189 13.8303 41.6184 13.8785 41.6168C15.0766 41.5783 16.219 41.0389 17.012 40.1367C17.4439 39.6449 17.903 39.1639 18.3765 38.7069C27.5814 29.813 42.5578 29.8135 51.7616 38.708C52.2341 39.1644 52.6927 39.6449 53.125 40.1367C53.9181 41.0389 55.0605 41.5783 56.2586 41.6168C57.4706 41.6559 58.6077 41.2053 59.4644 40.3486C61.0804 38.7326 61.1617 36.1208 59.6506 34.4025C59.0128 33.678 58.3327 32.9701 57.6285 32.2991V32.2991Z" fill="white"/>
</g>
<defs>
<clipPath id="clip0_159_173">
<rect width="70.1368" height="70" fill="white" transform="translate(0 0.998169)"/>
</clipPath>
</defs>
</svg>
