<svg width="20" height="20" viewBox="0 0 20 20" fill="none" xmlns="http://www.w3.org/2000/svg">
<path fill-rule="evenodd" clip-rule="evenodd" d="M10 20C15.5228 20 20 15.5228 20 10C20 4.47715 15.5228 0 10 0C4.47715 0 0 4.47715 0 10C0 15.5228 4.47715 20 10 20ZM8.4697 6.46967L5.46967 9.4697C5.17678 9.7626 5.17678 10.2374 5.46967 10.5303L8.4697 13.5303C8.7626 13.8232 9.2374 13.8232 9.5303 13.5303C9.8232 13.2374 9.8232 12.7626 9.5303 12.4697L7.81066 10.75H14C14.4142 10.75 14.75 10.4142 14.75 10C14.75 9.5858 14.4142 9.25 14 9.25H7.81066L9.5303 7.53033C9.8232 7.23744 9.8232 6.76256 9.5303 6.46967C9.2374 6.17678 8.7626 6.17678 8.4697 6.46967Z" fill="white"/>
</svg>
