<svg width="40" height="41" viewBox="0 0 40 41" fill="none" xmlns="http://www.w3.org/2000/svg">
<g clip-path="url(#clip0_141_328)">
<path d="M19.9444 0C8.92942 0 0 8.9543 0 20C0 31.0457 8.92942 40 19.9444 40C30.9595 40 39.8889 31.0457 39.8889 20C39.8889 8.9543 30.9595 0 19.9444 0ZM30.3108 12.6512L26.7685 29.6094C26.7256 29.8145 26.6321 30.0055 26.4964 30.1649C26.3607 30.3243 26.1872 30.4469 25.9919 30.5215C25.7967 30.5961 25.5858 30.6203 25.3787 30.5919C25.1717 30.5635 24.9751 30.4833 24.807 30.3588L19.6545 26.5416L16.5329 29.4947C16.492 29.5333 16.4439 29.5635 16.3913 29.5833C16.3387 29.6031 16.2827 29.6121 16.2265 29.61C16.1704 29.6079 16.1153 29.5945 16.0643 29.5708C16.0134 29.5471 15.9677 29.5134 15.9298 29.4717L15.8628 29.3978L16.4052 24.1341L26.1814 15.177C26.2297 15.1328 26.2598 15.072 26.2656 15.0067C26.2715 14.9413 26.2527 14.8761 26.213 14.824C26.1733 14.7718 26.1155 14.7365 26.0511 14.725C25.9866 14.7134 25.9203 14.7265 25.865 14.7616L13.3624 22.6968L7.97778 20.8834C7.8346 20.8351 7.70982 20.7437 7.62054 20.6215C7.53127 20.4993 7.48188 20.3524 7.47915 20.201C7.47642 20.0496 7.52048 19.901 7.60529 19.7757C7.6901 19.6503 7.81151 19.5544 7.95285 19.501L29.0207 11.5425C29.1832 11.4812 29.3592 11.4648 29.5302 11.495C29.7012 11.5252 29.861 11.6009 29.9928 11.7142C30.1247 11.8275 30.2238 11.9742 30.2797 12.1391C30.3356 12.3039 30.3464 12.4808 30.3108 12.6512Z" fill="#0092E4"/>
</g>
<defs>
<clipPath id="clip0_141_328">
<rect width="39.8889" height="40.5195" fill="white"/>
</clipPath>
</defs>
</svg>
