<svg width="41" height="40" viewBox="0 0 41 40" fill="none" xmlns="http://www.w3.org/2000/svg">
<path d="M20.7449 0C9.73 0 0.800049 8.95338 0.800049 19.9992C0.800049 31.0451 9.73 40 20.7449 40C31.759 40 40.6889 31.0451 40.6889 19.9992C40.6889 8.95338 31.759 0 20.7449 0ZM19.8112 10.5654C19.9736 10.4163 20.0875 10.3956 20.6508 10.4129C20.9444 10.4233 21.3763 10.4579 21.6112 10.4856C22.7997 10.6346 23.7602 10.9222 24.814 11.4384C25.8505 11.9477 26.5137 12.4293 27.3913 13.3058C28.2136 14.1339 28.6696 14.761 29.1533 15.7345C29.827 17.0926 30.2105 18.7071 30.2762 20.4845C30.3004 21.0906 30.2831 21.2259 30.1449 21.399C29.8824 21.7351 29.3053 21.6797 29.1085 21.3021C29.0462 21.1773 29.029 21.0701 29.0083 20.585C28.9737 19.8401 28.9219 19.3585 28.8183 18.7834C28.4106 16.5279 27.3327 14.7263 25.6121 13.434C24.1782 12.3531 22.6961 11.8265 20.7545 11.7122C20.0981 11.6741 19.9841 11.6498 19.8356 11.5354C19.559 11.3172 19.5451 10.8044 19.8112 10.5654ZM23.9294 15.0278C23.235 14.6121 22.2089 14.3037 21.2726 14.2275C20.9339 14.1997 20.7474 14.1305 20.6196 13.9815C20.4227 13.7563 20.402 13.4514 20.5678 13.1985C20.7475 12.9179 21.0238 12.8728 21.8496 12.9976C23.9468 13.3059 25.5705 14.283 26.6346 15.8697C27.2324 16.7636 27.6055 17.8134 27.7333 18.9393C27.7782 19.3517 27.7782 20.1035 27.7298 20.2282C27.6849 20.346 27.5398 20.5054 27.4154 20.5711C27.2807 20.6404 26.994 20.6335 26.835 20.5504C26.569 20.4153 26.4895 20.2005 26.4895 19.6184C26.4895 18.7211 26.258 17.7753 25.8573 17.0407C25.4013 16.2023 24.7379 15.5094 23.9294 15.0278ZM25.0972 19.6461C24.8933 19.8332 24.5168 19.8402 24.2887 19.6635C24.1229 19.5387 24.0711 19.4071 24.033 19.0503C23.9882 18.5756 23.9052 18.243 23.7636 17.9346C23.4596 17.2798 22.9241 16.9403 22.0189 16.8294C21.5939 16.7775 21.466 16.729 21.3279 16.5661C21.0757 16.2646 21.1724 15.7762 21.5213 15.596C21.6527 15.5301 21.7079 15.5232 21.9981 15.5406C22.1778 15.551 22.4438 15.5821 22.5855 15.6134C23.2661 15.7589 23.7879 16.0187 24.2335 16.4379C24.807 16.9819 25.1214 17.6402 25.2596 18.586C25.3528 19.2026 25.3148 19.4452 25.0972 19.6461ZM30.2588 28.7477C30.0031 29.4094 29.0082 30.6498 28.3137 31.1798C27.6849 31.6579 27.2393 31.8415 26.6519 31.8693C26.1682 31.8935 25.9678 31.8519 25.3493 31.5956C20.4986 29.5896 16.6257 26.5962 13.5508 22.4837C11.9443 20.3356 10.7212 18.1079 9.8851 15.797C9.398 14.4493 9.37378 13.8638 9.77454 13.1743C9.94738 12.8833 10.6832 12.1626 11.2188 11.7607C12.1102 11.0955 12.5213 10.8495 12.8495 10.7802C13.074 10.7317 13.4644 10.7698 13.7132 10.8599C13.8341 10.9014 14.0207 10.9984 14.1278 11.0677C14.7842 11.5043 16.6119 13.8498 17.2096 15.0209C17.5515 15.6895 17.6656 16.1849 17.5585 16.5522C17.4479 16.9472 17.2648 17.1551 16.446 17.8168C16.1178 18.0836 15.8102 18.3573 15.762 18.4301C15.6376 18.6102 15.5374 18.9636 15.5374 19.213C15.5409 19.7917 15.914 20.8415 16.4046 21.6487C16.7846 22.2758 17.4652 23.0795 18.1389 23.6963C18.9301 24.424 19.628 24.9193 20.4157 25.3108C21.4279 25.8166 22.0464 25.9448 22.4991 25.7335C22.613 25.6815 22.734 25.6122 22.772 25.5811C22.8065 25.5499 23.0726 25.2243 23.3628 24.864C23.9225 24.1571 24.0504 24.0429 24.4338 23.9112C24.921 23.7449 25.4185 23.7899 25.9194 24.0463C26.2994 24.2438 27.1286 24.7601 27.6642 25.1342C28.3689 25.6297 29.8752 26.8631 30.0792 27.1091C30.4385 27.5525 30.5007 28.1205 30.2588 28.7477Z" fill="#7F4DA0"/>
</svg>
