<svg width="41" height="40" viewBox="0 0 41 40" fill="none" xmlns="http://www.w3.org/2000/svg">
<path d="M20.5821 9.58398C15.0782 9.58398 10.6019 14.0599 10.5998 19.5616C10.599 21.447 11.1266 23.2832 12.1253 24.8719L12.3627 25.2494L11.3547 28.9315L15.1312 27.9409L15.4955 28.1571C17.0275 29.0662 18.7837 29.5473 20.5741 29.548H20.5781C26.078 29.548 30.5541 25.0716 30.5563 19.5695C30.5573 16.9033 29.5204 14.3963 27.6366 12.5102C25.7527 10.6242 23.2473 9.5848 20.5821 9.58398ZM26.4513 23.8518C26.2014 24.5524 25.0029 25.1919 24.4266 25.278C23.9097 25.3553 23.2558 25.3875 22.5373 25.1592C22.1016 25.021 21.5429 24.8363 20.8272 24.5273C17.8181 23.2279 15.8528 20.1981 15.7028 19.9978C15.5529 19.7977 14.478 18.3713 14.478 16.8947C14.478 15.4183 15.253 14.6925 15.5279 14.3921C15.8027 14.0919 16.1278 14.0168 16.3277 14.0168C16.5277 14.0168 16.7279 14.0187 16.9026 14.0274C17.0867 14.0367 17.3341 13.9574 17.5776 14.5423C17.8276 15.143 18.4274 16.6196 18.5025 16.7697C18.5775 16.9198 18.6275 17.095 18.5275 17.2952C18.4275 17.4953 18.3776 17.6205 18.2276 17.7956C18.0776 17.9708 17.9125 18.1867 17.7776 18.3211C17.6274 18.4708 17.4711 18.6331 17.646 18.9333C17.8211 19.2338 18.4231 20.216 19.3149 21.0115C20.4605 22.0334 21.4271 22.3501 21.7271 22.5003C22.027 22.6506 22.2021 22.6253 22.377 22.4253C22.552 22.2251 23.1269 21.5493 23.3269 21.249C23.5268 20.9488 23.7268 20.9989 24.0017 21.0989C24.2767 21.1992 25.7515 21.9247 26.0515 22.0748C26.3514 22.225 26.5514 22.3001 26.6264 22.4253C26.7013 22.5503 26.7013 23.1509 26.4513 23.8518Z" fill="#29BD4A"/>
<path d="M20.1393 0C9.09374 0 0.138916 8.95338 0.138916 19.9992C0.138916 31.045 9.09374 40 20.1393 40C31.1841 40 40.1389 31.045 40.1389 19.9992C40.1389 8.95338 31.1841 0 20.1393 0ZM20.5782 31.5757C20.5778 31.5757 20.5785 31.5757 20.5782 31.5757H20.5733C18.5641 31.575 16.5897 31.0708 14.8363 30.1144L8.47216 31.7839L10.1753 25.5628C9.12476 23.7421 8.57198 21.6769 8.57287 19.5609C8.57547 12.9417 13.9611 7.55637 20.5782 7.55637C23.7896 7.55767 26.8039 8.80791 29.0704 11.0772C31.337 13.3463 32.5847 16.3626 32.5834 19.5705C32.5806 26.1898 27.1947 31.5757 20.5782 31.5757Z" fill="#29BD4A"/>
</svg>
